<svg width="586" height="383" viewBox="0 0 586 383" fill="none" xmlns="http://www.w3.org/2000/svg">
<path d="M334.184 357.021C336.544 357.815 404.083 358.053 406.67 356.431C407.657 355.819 408.258 345.984 408.655 334.084C408.746 331.509 408.814 328.855 408.882 326.144L414.349 290.128L369.202 289.833L364.937 325.872L365.107 333.812C365.107 333.812 339.21 345.292 336.567 347.368C333.923 349.444 331.836 356.216 334.184 357.021Z" fill="#505dd1"/>
<path d="M334.184 357.021C336.544 357.816 404.083 358.054 406.67 356.432C407.861 355.683 408.519 341.322 408.882 326.156L364.937 325.883L365.107 333.824C365.107 333.824 339.21 345.304 336.567 347.379C333.923 349.455 331.836 356.216 334.184 357.021Z" fill="white"/>
<path d="M334.184 357.021C336.544 357.815 404.083 358.054 406.67 356.432C407.657 355.819 408.258 345.984 408.655 334.085L365.107 333.801C365.107 333.801 339.21 345.281 336.567 347.357C333.923 349.433 331.836 356.216 334.184 357.021Z" fill="#505dd1"/>
<path d="M335.172 354.321C346.515 354.083 392.184 354.185 403.392 354.809C403.483 354.809 403.483 354.877 403.392 354.889C392.173 355.365 346.481 354.889 335.16 354.503C334.922 354.492 334.933 354.321 335.172 354.321Z" fill="#263238"/>
<path d="M340.923 344.94C342.189 344.905 343.449 345.135 344.621 345.615C345.793 346.096 346.852 346.817 347.729 347.731C349.313 349.353 350.215 351.521 350.247 353.788C350.247 353.857 350.111 353.857 350.1 353.788C349.729 351.553 348.645 349.497 347.009 347.929C345.374 346.36 343.274 345.364 341.025 345.088C341.005 345.102 340.981 345.107 340.958 345.102C340.934 345.098 340.914 345.085 340.9 345.065C340.886 345.046 340.881 345.022 340.885 344.998C340.89 344.975 340.903 344.954 340.923 344.94Z" fill="#263238"/>
<path d="M360.717 334.913C365.255 334.913 370.495 336.489 373.297 340.199C373.411 340.346 373.206 340.494 373.07 340.426C369.098 338.336 364.916 336.674 360.592 335.468C360.519 335.452 360.455 335.407 360.414 335.343C360.374 335.279 360.36 335.202 360.377 335.128C360.393 335.054 360.439 334.99 360.502 334.95C360.566 334.909 360.643 334.896 360.717 334.913Z" fill="#263238"/>
<path d="M357.212 336.263C361.749 336.263 366.99 337.839 369.792 341.56C369.905 341.696 369.701 341.855 369.565 341.776C365.596 339.682 361.412 338.024 357.087 336.83C357.023 336.803 356.97 336.755 356.938 336.694C356.906 336.632 356.897 336.562 356.912 336.494C356.927 336.426 356.965 336.366 357.02 336.324C357.075 336.281 357.143 336.26 357.212 336.263Z" fill="#263238"/>
<path d="M353.707 337.624C358.244 337.567 363.485 339.19 366.298 342.91C366.4 343.046 366.196 343.205 366.06 343.137C362.093 341.036 357.909 339.373 353.582 338.18C353.508 338.163 353.444 338.118 353.404 338.054C353.363 337.991 353.35 337.913 353.366 337.84C353.383 337.766 353.428 337.702 353.492 337.661C353.556 337.621 353.633 337.608 353.707 337.624Z" fill="#263238"/>
<path d="M350.202 338.974C354.739 338.974 359.991 340.539 362.793 344.26C362.895 344.396 362.691 344.555 362.555 344.487C358.588 342.385 354.404 340.723 350.077 339.529C350.003 339.513 349.939 339.468 349.899 339.404C349.858 339.34 349.845 339.263 349.861 339.189C349.878 339.115 349.923 339.051 349.987 339.011C350.051 338.97 350.128 338.957 350.202 338.974Z" fill="#263238"/>
<path d="M400.578 344.044C405.672 344.044 405.626 351.985 400.578 351.985C395.531 351.985 395.451 344.01 400.578 344.044Z" fill="#263238"/>
<path d="M356.202 329.445C358.63 332.609 362.35 334.617 365.572 336.852C365.648 336.895 365.732 336.919 365.819 336.924C365.906 336.928 365.992 336.912 366.072 336.876C366.151 336.841 366.221 336.788 366.276 336.72C366.331 336.653 366.37 336.574 366.389 336.489C366.406 336.493 366.425 336.492 366.442 336.487C366.46 336.483 366.476 336.474 366.489 336.462C366.502 336.449 366.512 336.434 366.519 336.417C366.525 336.4 366.527 336.382 366.525 336.364C366.21 332.206 364.805 328.203 362.453 324.76C361.046 322.775 358.165 320.914 355.862 322.809C353.559 324.703 354.773 327.607 356.202 329.445ZM355.998 325.69C356.475 320.767 360.91 324.556 361.885 326.064C362.5 327.048 363.05 328.071 363.53 329.127C364.485 331.326 365.33 333.571 366.06 335.854C364.551 334.651 362.94 333.585 361.386 332.451C359.537 331.101 355.749 328.412 355.998 325.69Z" fill="#263238"/>
<path d="M382.633 333.529C382.292 330.568 378.912 329.922 376.53 330.364C372.449 331.22 368.664 333.128 365.549 335.9C365.533 335.91 365.519 335.924 365.51 335.941C365.501 335.958 365.496 335.977 365.496 335.996C365.496 336.016 365.501 336.035 365.51 336.051C365.519 336.068 365.533 336.082 365.549 336.093C365.502 336.166 365.472 336.249 365.463 336.336C365.454 336.423 365.467 336.511 365.499 336.592C365.531 336.673 365.582 336.746 365.648 336.803C365.715 336.86 365.793 336.9 365.878 336.921C369.758 337.533 373.819 338.679 377.778 338.055C380.092 337.737 382.962 336.331 382.633 333.529ZM371.959 336.648C370.041 336.399 368.158 336.047 366.287 335.866C368.431 334.788 370.518 333.597 372.764 332.769C373.843 332.34 374.95 331.984 376.076 331.703C377.823 331.306 383.654 331.635 380.614 335.514C378.833 337.647 374.239 336.932 371.959 336.648Z" fill="#263238"/>
<path d="M480.709 123.605C480.709 123.605 428.268 212.811 426.862 219.072C424.706 228.703 413.249 323.739 413.249 323.739L358.687 322.764C358.687 322.764 368.091 238.958 376.995 211.359C383.416 191.473 429.686 125.522 429.686 125.522L480.709 123.605Z" fill="#f94d53"/>
<path d="M363.666 314.392C371.505 314.336 399.274 314.029 409.699 314.994C409.72 314.994 409.74 315.002 409.755 315.017C409.77 315.032 409.778 315.052 409.778 315.073C409.778 315.094 409.77 315.114 409.755 315.129C409.74 315.144 409.72 315.152 409.699 315.152C406.114 315.663 371.505 314.858 363.666 314.608C363.649 314.614 363.631 314.615 363.614 314.612C363.596 314.61 363.579 314.603 363.565 314.592C363.55 314.582 363.538 314.568 363.53 314.552C363.522 314.536 363.518 314.518 363.518 314.5C363.518 314.482 363.522 314.465 363.53 314.449C363.538 314.433 363.55 314.419 363.565 314.408C363.579 314.398 363.596 314.391 363.614 314.388C363.631 314.385 363.649 314.387 363.666 314.392Z" fill="#263238"/>
<path d="M471.759 131.795C468.356 137.183 464.692 142.458 461.175 147.801C457.659 153.144 454.165 158.498 450.705 163.886C443.801 174.64 437.055 185.492 430.468 196.442C427.275 201.482 424.538 206.796 422.29 212.323C420.242 217.877 418.704 223.607 417.695 229.44C416.618 235.305 415.915 241.215 415.257 247.125C414.546 253.417 413.842 259.709 413.147 266.001C411.71 278.857 410.273 291.735 408.836 304.637C408.655 306.213 408.484 307.802 408.326 309.378C408.326 309.617 408.711 309.662 408.745 309.378C410.345 296.583 411.683 283.753 413.147 270.935L415.325 251.855C415.994 245.922 416.641 239.99 417.593 234.08C418.445 228.267 419.73 222.526 421.439 216.906C423.309 211.082 425.824 205.485 428.937 200.219C435.255 189.318 441.948 178.598 448.641 167.913C455.333 157.227 462.196 146.36 469.263 135.777C470.125 134.472 471.01 133.168 471.918 131.886C472.042 131.784 471.827 131.693 471.759 131.795Z" fill="#263238"/>
<path d="M434.348 364.52C436.832 364.678 503.85 347.016 505.937 344.793C506.029 344.658 506.084 344.502 506.096 344.339C506.357 342.139 502.931 333.915 500.526 323.377C500.379 322.707 499.12 319.508 497.35 315.186C492.484 303.332 483.806 282.959 483.806 282.959L440.054 294.19L456.162 326.575L458.34 334.187C458.34 334.187 436.208 351.894 434.189 354.605C432.17 357.316 431.875 364.338 434.348 364.52Z" fill="#EB9481"/>
<path d="M434.348 364.519C436.833 364.678 503.85 347.016 505.938 344.793C506.029 344.658 506.084 344.502 506.096 344.339C506.357 342.138 502.932 333.914 500.527 323.376C500.379 322.707 499.12 319.508 497.351 315.186L456.174 326.53L458.351 334.141C458.351 334.141 436.22 351.848 434.201 354.56C432.182 357.271 431.876 364.338 434.348 364.519Z" fill="white"/>
<path d="M434.348 364.508C436.833 364.689 503.85 347.016 505.938 344.792C506.732 343.953 504.996 334.89 500.527 323.376L458.351 334.198C458.351 334.198 436.22 351.882 434.201 354.616C432.182 357.35 431.876 364.337 434.348 364.508Z" fill="#505dd1"/>
<path d="M434.609 361.649C445.499 358.541 489.716 347.016 500.719 344.759C500.81 344.759 500.821 344.759 500.719 344.838C490 348.15 445.692 359.324 434.643 361.853C434.427 361.887 434.382 361.717 434.609 361.649Z" fill="#263238"/>
<path d="M437.797 351.122C439.006 350.773 440.276 350.68 441.524 350.848C442.771 351.016 443.971 351.441 445.045 352.098C446.987 353.266 448.408 355.133 449.015 357.316C449.015 357.384 448.902 357.418 448.879 357.316C447.946 355.241 446.364 353.525 444.371 352.427C442.379 351.328 440.084 350.906 437.831 351.225C437.824 351.235 437.814 351.244 437.802 351.249C437.79 351.254 437.778 351.256 437.765 351.254C437.752 351.252 437.741 351.247 437.731 351.239C437.721 351.231 437.714 351.22 437.71 351.208C437.706 351.196 437.705 351.183 437.708 351.171C437.711 351.158 437.717 351.147 437.726 351.138C437.735 351.129 437.747 351.123 437.759 351.12C437.772 351.117 437.785 351.118 437.797 351.122Z" fill="#263238"/>
<path d="M454.381 336.387C458.748 335.185 464.238 335.412 467.891 338.293C468.038 338.406 467.891 338.61 467.732 338.576C463.376 337.553 458.923 337.002 454.449 336.932C454.387 336.923 454.329 336.895 454.285 336.85C454.241 336.806 454.212 336.748 454.205 336.686C454.197 336.623 454.21 336.56 454.242 336.506C454.274 336.452 454.323 336.41 454.381 336.387Z" fill="#263238"/>
<path d="M451.341 338.588C455.708 337.385 461.199 337.612 464.851 340.493C464.999 340.607 464.851 340.811 464.681 340.777C460.323 339.776 455.869 339.247 451.398 339.2C451.317 339.208 451.236 339.183 451.173 339.131C451.11 339.078 451.071 339.004 451.063 338.922C451.056 338.841 451.081 338.76 451.133 338.697C451.185 338.635 451.26 338.595 451.341 338.588Z" fill="#263238"/>
<path d="M448.289 340.788C452.668 339.586 458.147 339.813 461.811 342.694C461.947 342.808 461.811 343 461.641 342.978C457.285 341.957 452.831 341.41 448.358 341.344C448.29 341.342 448.226 341.315 448.176 341.27C448.127 341.224 448.095 341.162 448.087 341.095C448.079 341.028 448.094 340.961 448.132 340.905C448.169 340.848 448.225 340.807 448.289 340.788Z" fill="#263238"/>
<path d="M445.25 342.978C449.617 341.787 455.107 342.013 458.76 344.895C458.907 345.008 458.76 345.201 458.601 345.167C454.243 344.157 449.79 343.613 445.318 343.545C445.242 343.554 445.167 343.533 445.107 343.486C445.048 343.439 445.009 343.37 445 343.295C444.991 343.22 445.012 343.144 445.059 343.085C445.106 343.025 445.174 342.987 445.25 342.978Z" fill="#263238"/>
<path d="M495.229 335.083C500.152 333.812 502.125 341.469 497.191 342.728C492.257 343.988 490.294 336.342 495.229 335.083Z" fill="#263238"/>
<path d="M448.618 332.247C451.783 334.686 455.889 335.65 459.565 337.022C459.649 337.046 459.737 337.049 459.823 337.031C459.908 337.014 459.989 336.977 460.057 336.923C460.126 336.869 460.18 336.799 460.217 336.72C460.254 336.641 460.271 336.554 460.268 336.467C460.287 336.466 460.305 336.461 460.321 336.452C460.338 336.443 460.351 336.43 460.362 336.415C460.372 336.399 460.378 336.381 460.379 336.362C460.381 336.344 460.378 336.325 460.37 336.308C459.006 332.359 456.628 328.838 453.473 326.099C451.613 324.545 448.346 323.467 446.599 325.894C444.852 328.322 446.781 330.829 448.618 332.247ZM447.484 328.674C446.69 323.785 451.942 326.337 453.269 327.539C454.117 328.331 454.909 329.18 455.64 330.08C457.129 331.957 458.519 333.911 459.803 335.933C458.033 335.162 456.207 334.55 454.415 333.835C452.259 332.995 447.915 331.362 447.472 328.674H447.484Z" fill="#263238"/>
<path d="M475.219 329.468C474.141 326.689 470.682 326.927 468.515 327.971C464.782 329.829 461.605 332.638 459.304 336.115C459.292 336.13 459.284 336.147 459.28 336.166C459.277 336.184 459.278 336.204 459.283 336.222C459.289 336.24 459.299 336.256 459.312 336.269C459.326 336.282 459.343 336.292 459.361 336.297C459.336 336.38 459.331 336.468 459.346 336.553C459.361 336.638 459.396 336.719 459.448 336.788C459.5 336.858 459.567 336.914 459.644 336.953C459.722 336.992 459.807 337.012 459.894 337.012C463.807 336.615 468.027 336.683 471.691 335.106C473.835 334.187 476.251 332.089 475.219 329.468ZM465.691 335.208C463.785 335.446 461.868 335.594 460.019 335.9C461.766 334.262 463.594 332.713 465.498 331.26C466.431 330.573 467.409 329.948 468.424 329.389C470.012 328.549 475.741 327.392 473.744 331.918C472.599 334.425 467.982 334.924 465.691 335.208Z" fill="#263238"/>
<path d="M453.167 324.454L502.194 311.59C502.194 311.59 455.254 219.219 455.685 212.844C456.026 207.173 490.068 157.624 491.985 148.345C495.059 133.156 487.663 119.589 480.494 111.195L429.788 125.488C429.788 125.488 433.826 134.256 441.245 139.792C441.245 139.792 409.381 192.993 408.564 210.508C407.747 228.022 453.167 324.454 453.167 324.454Z" fill="#f94d53"/>
<path d="M452.237 315.379C459.338 313.348 457.274 313.836 464.409 311.874C467.903 310.921 490.851 304.648 494.254 304.319C494.333 304.319 494.367 304.432 494.254 304.466C491.123 305.873 468.073 311.749 464.568 312.634C457.399 314.449 459.429 313.848 452.237 315.594C452.158 315.606 452.101 315.379 452.237 315.379Z" fill="#263238"/>
<path d="M433.384 137.784C438.242 139.587 442.937 141.803 447.416 144.409C447.452 144.427 447.479 144.459 447.492 144.497C447.505 144.535 447.502 144.577 447.484 144.613C447.466 144.649 447.434 144.677 447.396 144.689C447.358 144.702 447.316 144.699 447.28 144.681C442.549 142.617 437.717 140.643 433.112 138.329C433.048 138.288 433.003 138.225 432.983 138.152C432.963 138.08 432.971 138.002 433.004 137.935C433.038 137.867 433.095 137.815 433.165 137.787C433.235 137.759 433.313 137.758 433.384 137.784Z" fill="#263238"/>
<path d="M439.339 136.537C439.699 137.428 440.002 138.341 440.246 139.27C440.512 139.996 440.632 140.767 440.598 141.539C440.583 141.565 440.562 141.587 440.536 141.602C440.51 141.617 440.48 141.624 440.45 141.624C440.421 141.624 440.391 141.617 440.365 141.602C440.339 141.587 440.318 141.565 440.303 141.539C439.878 140.861 439.557 140.123 439.35 139.35C439.044 138.499 438.715 137.66 438.443 136.809C438.25 136.264 439.146 135.992 439.339 136.537Z" fill="#263238"/>
<path d="M439.339 131.943C439.135 131.16 438.931 130.389 438.715 129.606C438.5 128.823 438.205 128.018 438.046 127.201C438.046 127.076 437.819 127.133 437.853 127.201C438.046 127.984 438.137 128.8 438.273 129.595C438.409 130.389 438.568 131.183 438.727 131.965C439.026 133.452 439.404 134.921 439.861 136.367C439.062 136.308 438.287 136.072 437.592 135.675C436.916 135.115 436.432 134.357 436.208 133.508C435.891 132.623 435.607 131.727 435.278 130.854C434.87 129.896 434.544 128.906 434.303 127.893C434.303 127.757 434.076 127.814 434.098 127.893C434.489 130.031 435.094 132.125 435.902 134.143C436.254 134.937 436.515 135.754 437.297 136.14C438.158 136.504 439.085 136.686 440.02 136.673C440.122 136.673 440.281 136.673 440.258 136.525C440.02 135.073 439.725 133.474 439.339 131.943Z" fill="#263238"/>
<path d="M440.178 141.562C438.25 145.044 436.049 148.368 433.985 151.771C431.92 155.174 430.06 158.486 428.177 161.889C424.388 168.764 420.871 175.819 417.661 182.988C416.073 186.535 414.561 190.124 413.124 193.753C411.629 197.366 410.397 201.081 409.437 204.87C408.535 208.652 408.366 212.572 408.938 216.418C409.655 220.361 410.672 224.244 411.978 228.034C414.606 236.713 417.804 245.209 421.552 253.466C421.677 253.738 422.131 253.534 422.029 253.25C419.351 245.696 416.584 238.163 414.167 230.563C411.842 223.145 409.074 215.454 410.356 207.57C411.072 203.788 412.151 200.085 413.578 196.51C414.954 192.835 416.421 189.201 417.979 185.609C421.064 178.519 424.513 171.634 428.052 164.771C430.026 160.925 432.102 157.125 434.109 153.291C436.117 149.457 438.091 145.487 440.348 141.766C440.416 141.55 440.28 141.46 440.178 141.562Z" fill="#263238"/>
<path d="M477.102 134.121C476.183 133.973 474.833 134.291 470.874 134.018C469.774 133.921 468.682 133.743 467.607 133.485C466.517 133.315 465.481 132.896 464.578 132.26C463.14 130.9 461.967 129.284 461.119 127.496C460.058 125.652 459.245 123.677 458.702 121.62C458.702 121.495 458.487 121.552 458.51 121.677C458.725 122.811 458.839 123.945 459.145 125.148C459.437 126.228 459.816 127.283 460.279 128.301C461.008 130.317 462.228 132.118 463.83 133.542C465.622 134.892 468.129 135.141 470.296 135.3C471.555 135.391 476.489 135.3 477.102 134.552C477.283 134.427 477.272 134.155 477.102 134.121Z" fill="#263238"/>
<path d="M490.022 301.041C483.836 288.472 477.786 275.824 471.873 263.096C465.959 250.369 460.219 237.547 454.653 224.63C453.114 221.598 451.886 218.417 450.989 215.136C450.229 211.54 451.341 208.33 452.861 205.074C455.689 199.17 458.851 193.432 462.333 187.889C465.736 182.308 469.411 176.851 473.007 171.372C476.726 166.006 480.134 160.431 483.216 154.675C486.007 149.105 487.561 143.172 486.767 136.933C485.973 130.695 483.284 124.932 480.414 119.453C479.654 118.012 478.872 116.583 478.146 115.131C478.089 115.029 477.919 115.131 477.987 115.233C481.186 120.973 484.26 126.997 485.757 133.383C486.529 136.566 486.766 139.855 486.46 143.116C486.062 146.408 485.135 149.614 483.715 152.61C481.05 158.464 477.329 163.863 473.824 169.229C470.319 174.594 466.587 180.175 463.093 185.733C459.543 191.298 456.283 197.041 453.326 202.942C452.033 205.585 450.615 208.341 450.297 211.302C449.957 214.557 451.125 217.666 452.384 220.604C457.829 233.376 463.569 246.047 469.4 258.65C475.23 271.252 481.276 283.901 487.413 296.424L489.682 301.154C489.829 301.415 490.113 301.233 490.022 301.041Z" fill="#263238"/>
<path d="M428.665 16.5901C429.799 11.4061 435.562 -0.323114 446.939 1.96828C463.183 5.24657 465.531 36.5434 473.619 46.2989C488.264 63.9721 488.74 81.4639 476.739 84.2658C463.285 87.3966 450.195 72.9222 450.649 41.7274C450.955 22.1938 445.453 13.5387 441.574 14.1172C437.694 14.6957 435.55 19.6302 435.55 19.6302L428.665 16.5901Z" fill="#263238"/>
<path d="M429.209 14.6501C430.013 12.232 431.106 9.92003 432.465 7.7646C433.828 5.55611 435.636 3.65546 437.774 2.18356C439.987 0.688331 442.614 -0.0735537 445.283 0.00559815C447.93 0.0854623 450.519 0.805531 452.827 2.10416C455.077 3.45037 457.011 5.26477 458.498 7.42429C459.969 9.54616 461.19 11.8298 462.14 14.2304C463.942 18.9899 465.205 23.9363 465.906 28.977C464.67 24.1035 463.069 19.3296 461.119 14.6955C460.107 12.4296 458.864 10.2743 457.409 8.2637C455.997 6.27924 454.18 4.61679 452.078 3.38599C449.973 2.18581 447.613 1.50524 445.192 1.40087C442.797 1.2887 440.424 1.90572 438.386 3.17046C436.297 4.48824 434.482 6.19865 433.043 8.207C432.292 9.20975 431.599 10.2551 430.968 11.3378C430.332 12.3814 429.754 13.5044 429.209 14.6501Z" fill="#263238"/>
<path d="M450.592 30.9618C450.763 34.0586 450.592 37.1667 450.524 40.2635C450.456 43.3603 450.331 46.4457 450.32 49.5312C450.309 52.6166 450.411 55.6907 450.728 58.7421C450.987 61.7798 451.542 64.785 452.385 67.7149C453.182 70.6261 454.526 73.3593 456.344 75.7688C458.25 78.1144 460.554 80.1071 463.15 81.6561C465.748 83.2334 468.683 84.174 471.714 84.4013C473.23 84.5184 474.756 84.4384 476.251 84.163C477.02 84.0192 477.779 83.8221 478.52 83.5732C479.259 83.3547 479.962 83.0299 480.607 82.609C479.343 83.5299 477.903 84.1823 476.376 84.5261C474.854 84.9226 473.287 85.1171 471.714 85.1046C470.127 85.0756 468.55 84.8508 467.018 84.4353C465.49 84.0056 464.017 83.4004 462.628 82.6317C461.236 81.8689 459.921 80.9723 458.703 79.9546L457.807 79.1832L456.945 78.3778C456.36 77.8267 455.814 77.2354 455.311 76.6082C453.361 74.0781 451.913 71.1979 451.046 68.1233C449.475 62.051 448.87 55.769 449.254 49.5085C449.345 46.4004 449.583 43.3036 449.855 40.2181C450.127 37.1327 450.49 34.0586 450.592 30.9618Z" fill="#263238"/>
<path d="M427.735 16.6806C427.553 15.24 428.427 13.2775 429.334 12.9259C430.242 12.5742 437.479 14.8997 438.239 16.6352C438.999 18.3708 436.072 20.2198 436.072 20.2198L427.735 16.6806Z" fill="#505dd1"/>
<path d="M436.401 67.7719C431.943 74.1357 399.705 100.464 382.122 101.44C374.182 101.871 343.123 98.4903 336.204 95.643C327.707 92.1492 344.507 71.1069 349.816 72.0031C356.463 73.1374 380.035 75.6217 384.731 75.7464C392.264 75.9393 415.359 63.2685 430.911 59.9676C438.954 58.2774 439.85 62.8715 436.401 67.7719Z" fill="#EB9481"/>
<path d="M436.049 68.9742C431.126 77.5612 413.748 92.2852 413.748 92.2852L410.787 86.8176L400.986 68.77C400.986 68.77 417.457 62.2134 428.381 59.0259C429.664 58.6322 430.976 58.3439 432.306 58.1638C439.362 57.2563 440.281 61.6008 436.049 68.9742Z" fill="#DBDBDB"/>
<path d="M436.049 68.9745C431.126 77.5616 413.748 92.2855 413.748 92.2855L410.787 86.8179L408.768 83.0973L400.975 68.7817C400.975 68.7817 417.457 62.2024 428.381 59.0149C429.666 58.6321 430.978 58.3477 432.306 58.1641C432.446 58.1536 432.586 58.1536 432.726 58.1641C439.396 57.4381 440.212 61.7487 436.049 68.9745Z" fill="#DBDBDB"/>
<path d="M415.506 64.3348C415.884 65.9004 415.884 67.5335 415.506 69.0991C415.128 67.5335 415.128 65.9004 415.506 64.3348ZM410.844 73.6819C410.045 73.669 409.247 73.7644 408.473 73.9655C409.248 74.161 410.045 74.2563 410.844 74.249C411.647 74.2556 412.447 74.1603 413.226 73.9655C412.448 73.7651 411.647 73.6698 410.844 73.6819ZM434.938 60.3645C434.135 60.3524 433.333 60.4478 432.556 60.6481C433.333 60.8485 434.135 60.9438 434.938 60.9317C435.737 60.9376 436.533 60.8423 437.309 60.6481C436.533 60.454 435.737 60.3587 434.938 60.3645ZM425.659 72.2072C426.22 72.7782 426.853 73.2739 427.542 73.6819C427.134 72.993 426.638 72.36 426.067 71.7989C425.504 71.2305 424.871 70.7351 424.184 70.3242C424.595 71.011 425.09 71.6437 425.659 72.2072ZM416.505 83.5508C417.065 84.1253 417.698 84.6248 418.388 85.0368C417.983 84.3454 417.487 83.712 416.913 83.1537C416.352 82.5792 415.719 82.0797 415.03 81.6677C415.421 82.3559 415.902 82.9891 416.459 83.5508H416.505Z" fill="white"/>
<path d="M416.777 88.2586C415.132 84.935 407.873 71.5496 406.114 68.7591C405.989 68.5662 405.842 68.5889 405.933 68.7591C409.149 75.4469 412.723 81.9563 416.641 88.2586C416.686 88.3948 416.823 88.3494 416.777 88.2586Z" fill="#263238"/>
<path d="M436.05 68.9742C431.127 77.5613 413.748 92.2852 413.748 92.2852L410.788 86.8176L408.768 83.097C418.195 73.7952 429.55 62.3496 432.726 58.1411C439.396 57.4378 440.213 61.7484 436.05 68.9742Z" fill="#A6A6A6"/>
<path d="M419.975 108.529L422.55 136.888C426.019 136.728 429.476 136.38 432.907 135.845C441.955 134.487 450.92 132.62 459.757 130.252C468.526 127.984 478.803 124.853 490.555 120.678C490.555 120.678 463.977 72.7404 445.635 59.5138C445.215 59.2076 444.806 58.924 444.387 58.6631C444.307 58.595 444.228 58.561 444.149 58.5043C435.811 53.2295 428.268 57.3699 424.093 63.2459C423.038 64.7205 412.829 87.9294 413.339 95.7111C413.805 102.551 419.975 108.529 419.975 108.529Z" fill="#DBDBDB"/>
<path d="M434.722 78.1739C434.923 78.9477 435.019 79.7453 435.006 80.5447C435.018 81.3478 434.923 82.149 434.722 82.9268C434.522 82.149 434.427 81.3478 434.439 80.5447C434.431 79.7456 434.527 78.9488 434.722 78.1739ZM440.905 107.871C440.898 108.674 440.993 109.475 441.188 110.253C441.394 109.477 441.49 108.675 441.472 107.871C441.484 107.068 441.388 106.267 441.188 105.489C440.993 106.268 440.898 107.068 440.905 107.871ZM460.699 90.9694C460.687 91.7726 460.782 92.5737 460.983 93.3516C461.361 91.786 461.361 90.1529 460.983 88.5873C460.782 89.3651 460.687 90.1663 460.699 90.9694ZM424.4 104.253C424.388 105.056 424.483 105.857 424.683 106.635C425.062 105.069 425.062 103.436 424.683 101.871C424.483 102.648 424.388 103.45 424.4 104.253ZM447.268 83.3466C446.465 83.34 445.665 83.4353 444.886 83.6301C446.452 84.008 448.085 84.008 449.65 83.6301C448.875 83.4362 448.079 83.3409 447.28 83.3466H447.268ZM464.147 104.502C463.344 104.484 462.542 104.58 461.765 104.786C463.331 105.164 464.964 105.164 466.53 104.786C465.755 104.587 464.958 104.491 464.159 104.502H464.147ZM438.488 121.268C437.689 121.255 436.891 121.351 436.118 121.552C436.891 121.753 437.689 121.848 438.488 121.835C439.292 121.847 440.093 121.752 440.87 121.552C440.095 121.358 439.299 121.262 438.5 121.268H438.488ZM468.379 118.001C467.579 117.995 466.783 118.09 466.008 118.285C467.57 118.663 469.199 118.663 470.761 118.285C469.982 118.09 469.181 117.995 468.379 118.001ZM434.938 60.3305C434.135 60.3184 433.334 60.4138 432.556 60.6141C433.334 60.8144 434.135 60.9098 434.938 60.8977C435.737 60.9035 436.533 60.8082 437.309 60.6141C436.532 60.4314 435.735 60.3475 434.938 60.3645V60.3305ZM447.075 65.5825C447.636 66.1571 448.269 66.6566 448.958 67.0686C448.557 66.3753 448.061 65.7414 447.484 65.1855C446.923 64.611 446.29 64.1115 445.601 63.6995C446.01 64.401 446.509 65.0456 447.087 65.6166L447.075 65.5825ZM471.861 92.1151C472.422 92.6896 473.055 93.1891 473.744 93.6011C473.339 92.9103 472.843 92.277 472.269 91.7181C471.706 91.1461 471.074 90.6469 470.386 90.2321C470.792 90.9329 471.288 91.5775 471.861 92.1492V92.1151ZM432.227 94.951C432.788 95.5255 433.421 96.025 434.11 96.437C433.263 95.0477 432.096 93.8809 430.707 93.034C431.124 93.7491 431.635 94.4052 432.227 94.9851V94.951ZM455.027 114.156C455.588 114.73 456.221 115.23 456.91 115.642C456.063 114.252 454.897 113.086 453.507 112.239C453.927 112.942 454.438 113.586 455.027 114.156ZM425.716 72.1845C426.277 72.7555 426.91 73.2512 427.599 73.6592C427.191 72.9703 426.695 72.3373 426.124 71.7761C425.56 71.2078 424.928 70.7124 424.241 70.3015C424.633 70.9931 425.109 71.6333 425.659 72.2072L425.716 72.1845ZM424.105 87.0899C424.677 86.5267 425.176 85.8941 425.591 85.2069C424.899 85.6112 424.266 86.1073 423.708 86.6816C423.133 87.2425 422.634 87.8754 422.222 88.5646C422.887 88.1561 423.5 87.6686 424.048 87.1126L424.105 87.0899ZM477.93 107.35C478.504 106.791 479 106.158 479.405 105.466C478.012 106.309 476.844 107.477 476.001 108.87C476.687 108.453 477.316 107.95 477.873 107.372L477.93 107.35ZM427.043 115.472C427.614 114.91 428.109 114.277 428.517 113.588C427.125 114.431 425.957 115.599 425.114 116.992C425.8 116.575 426.429 116.072 426.986 115.494L427.043 115.472ZM457.421 76.3703C457.995 75.8094 458.495 75.1764 458.907 74.4872C458.216 74.8963 457.582 75.3961 457.024 75.9732C456.449 76.5342 455.95 77.1671 455.538 77.8563C456.206 77.4473 456.819 76.9557 457.364 76.393L457.421 76.3703ZM449.889 127.303C450.466 126.744 450.966 126.111 451.375 125.42C450.683 125.829 450.05 126.329 449.492 126.906C448.917 127.467 448.418 128.1 448.006 128.789C448.674 128.38 449.287 127.888 449.832 127.326L449.889 127.303ZM449.889 96.6752C450.469 96.1197 450.969 95.4859 451.375 94.7922C449.985 95.6391 448.819 96.8059 447.972 98.1953C448.666 97.7722 449.299 97.2571 449.855 96.6639L449.889 96.6752Z" fill="white"/>
<path d="M438.942 58.0168C438.783 59.1512 434.269 66.5245 429.345 66.7173C427.735 66.7741 427.02 58.0395 427.02 58.0395L426.816 57.4043L424.014 48.545L434.042 40.8654L435.505 39.8331C435.505 39.8331 436.106 42.3174 436.832 45.4028L436.934 45.8452C436.934 46.0154 437.025 46.1742 437.059 46.3443L437.399 47.7396C437.479 48.1026 437.558 48.4542 437.626 48.8739L437.865 50.0083C438.406 52.6501 438.766 55.3259 438.942 58.0168Z" fill="#EB9481"/>
<path d="M436.878 45.4028C436.185 48.0202 434.931 50.4551 433.201 52.5377C431.471 54.6203 429.307 56.3004 426.861 57.461L424.059 48.6017L434.042 40.8654L435.505 39.8331C435.505 39.8331 436.106 42.2607 436.878 45.4028Z" fill="#263238"/>
<path d="M411.582 35.1932C411.502 51.5052 421.269 53.3996 424.786 53.4109C427.973 53.4109 438.852 53.0592 440.667 36.838C442.481 20.6167 434.87 15.4327 427.576 15.013C420.282 14.5933 411.661 18.8471 411.582 35.1932Z" fill="#EB9481"/>
<path d="M439.725 37.9385C437.059 38.2108 436.322 32.6184 436.322 32.6184C436.322 32.6184 430.888 32.7772 428.903 24.9955C429.114 27.3364 430.005 29.5644 431.467 31.4047C431.467 31.4047 421.836 30.656 417.594 22.7155C417.594 22.7155 419.307 26.7651 420.849 28.1831C418.4 27.4921 416.255 25.9979 414.758 23.9406C414.758 23.9406 413.192 28.6141 411.933 29.9187C411.933 29.9187 410.073 21.7059 413.487 17.4407C420.679 8.3659 432.488 16.3064 432.488 16.3064C432.488 16.3064 439.09 17.3046 441.449 22.2504C445.09 29.8166 439.725 37.9385 439.725 37.9385Z" fill="#263238"/>
<path d="M438.012 38.0408C438.012 38.0408 441.143 32.6753 443.559 33.7529C445.975 34.8305 443.899 42.408 441.29 43.6331C440.968 43.8147 440.612 43.9295 440.244 43.9706C439.876 44.0117 439.504 43.9784 439.149 43.8725C438.795 43.7666 438.465 43.5905 438.18 43.3544C437.895 43.1184 437.66 42.8274 437.49 42.4988L438.012 38.0408Z" fill="#EB9481"/>
<path d="M413.624 31.8923C414.007 31.8258 414.386 31.7348 414.758 31.6201C415.159 31.5752 415.533 31.3998 415.824 31.121C415.904 31.0191 415.948 30.8932 415.948 30.7636C415.948 30.6341 415.904 30.5082 415.824 30.4063C415.631 30.2363 415.395 30.1206 415.142 30.0708C414.889 30.021 414.628 30.0389 414.384 30.1227C413.865 30.2212 413.4 30.5081 413.079 30.9281C413.017 31.0238 412.982 31.1348 412.978 31.249C412.975 31.3632 413.002 31.4761 413.059 31.5756C413.115 31.6751 413.197 31.7572 413.297 31.813C413.397 31.8689 413.51 31.8963 413.624 31.8923Z" fill="#263238"/>
<path d="M424.264 33.1627C423.882 33.1248 423.504 33.0642 423.129 32.9812C422.715 32.9733 422.315 32.8254 421.995 32.5615C421.913 32.4604 421.868 32.3343 421.868 32.2042C421.868 32.0741 421.913 31.9479 421.995 31.8468C422.173 31.6612 422.397 31.5272 422.645 31.4593C422.893 31.3914 423.154 31.392 423.402 31.4612C423.927 31.5193 424.415 31.765 424.774 32.1531C424.848 32.2465 424.893 32.3589 424.905 32.4772C424.917 32.5954 424.894 32.7146 424.841 32.8206C424.787 32.9267 424.704 33.0152 424.602 33.0758C424.5 33.1364 424.382 33.1666 424.264 33.1627Z" fill="#263238"/>
<path d="M422.131 36.4978C422.131 36.4978 422.211 36.4978 422.211 36.5999C422.211 37.7343 422.358 39.0047 423.345 39.3564V39.4244C422.131 39.2656 421.893 37.5641 422.131 36.4978Z" fill="#263238"/>
<path d="M423.073 35.3183C424.865 35.1481 425.069 38.7213 423.402 38.9142C421.734 39.107 421.564 35.4544 423.073 35.3183Z" fill="#263238"/>
<path d="M423.787 35.4659C424.116 35.6588 424.445 35.999 424.83 36.0217C425.216 36.0444 425.579 35.6361 425.851 35.2617H425.908C425.908 35.9537 425.726 36.6797 425 36.8271C424.275 36.9746 423.866 36.3734 423.594 35.6928C423.56 35.5907 423.662 35.3979 423.787 35.4659Z" fill="#263238"/>
<path d="M415.881 36.5546C415.881 36.5546 415.79 36.6113 415.801 36.6567C415.903 37.791 415.801 39.0728 414.848 39.5039C414.848 39.5039 414.848 39.572 414.848 39.5039C416.085 39.3111 416.153 37.5982 415.881 36.5546Z" fill="#263238"/>
<path d="M414.804 35.4542C413 35.4542 413.091 39.0388 414.804 39.0615C416.516 39.0842 416.324 35.4769 414.804 35.4542Z" fill="#263238"/>
<path d="M414.066 35.7034C413.782 35.9076 413.51 36.2592 413.17 36.2932C412.829 36.3273 412.466 35.9416 412.206 35.5673H412.149C412.149 36.2592 412.398 36.9739 413.068 37.0873C413.737 37.2007 414.1 36.5882 414.202 35.8962C414.281 35.8168 414.191 35.624 414.066 35.7034Z" fill="#263238"/>
<path d="M417.752 41.5002C417.752 41.5002 417.593 43.1336 417.593 43.9617C419.12 43.9153 420.647 44.0755 422.131 44.4381C422.483 44.5402 422.46 44.2453 422.063 44.0298C420.879 43.3926 419.533 43.1202 418.195 43.2471C418.138 43.0315 418.49 40.6721 418.365 40.6721C417.756 40.7486 417.16 40.9089 416.595 41.1485C416.822 37.6433 417.616 34.1949 417.786 30.7011C417.786 30.674 417.776 30.6481 417.756 30.6289C417.737 30.6098 417.711 30.599 417.684 30.599C417.657 30.599 417.631 30.6098 417.612 30.6289C417.593 30.6481 417.582 30.674 417.582 30.7011C416.623 34.3615 416.03 38.1082 415.812 41.8858C415.847 42.3055 417.446 41.6476 417.752 41.5002Z" fill="#263238"/>
<path d="M419.443 43.9623C420.011 44.7093 420.808 45.2508 421.711 45.505C423.084 45.6412 423.175 44.3707 421.643 43.7922C420.908 43.6464 420.147 43.7052 419.443 43.9623Z" fill="#263238"/>
<path d="M421.734 45.5047C421.217 45.418 420.735 45.1903 420.339 44.8468C420.589 44.4044 421.224 43.9053 422.721 44.62C422.959 45.1418 422.608 45.5955 421.734 45.5047Z" fill="#FF99BA"/>
<path d="M436.549 56.0654C438.545 56.0654 441.903 56.5646 446.44 60.013C446.44 60.013 436.98 67.6245 428.177 67.6245C425.035 67.6245 424.094 63.2346 424.094 63.2346C424.094 63.2346 428.325 56.1335 436.549 56.0654Z" fill="#EB9481"/>
<path d="M586 382.669H548.941C522.011 382.669 505.54 364.054 502.58 330.262C501.116 313.598 500.22 293.429 499.279 272.081C496.375 206.481 492.393 116.674 466.859 116.674H437.513V109.868H466.859C498.893 109.868 502.546 192.188 506.074 271.797C507.015 293.078 507.911 313.178 509.363 329.649C511.212 350.726 519.572 375.852 548.941 375.852H586V382.669Z" fill="#505dd1"/>
<path opacity="0.2" d="M459.066 109.845L457.614 116.651H437.513V109.845H459.066Z" fill="black"/>
<path d="M382.201 72.514H370.336V155.424H382.201V72.514Z" fill="#505dd1"/>
<path d="M370.348 78.6394H325.234V148.448H370.348V78.6394Z" fill="#505dd1"/>
<path opacity="0.2" d="M370.336 78.6503V148.459H359.129L354.104 78.6503H370.336Z" fill="black"/>
<path d="M290.614 91.1735H325.223V101.61H290.614C289.429 101.61 288.292 101.139 287.454 100.3C286.615 99.4623 286.145 98.3255 286.145 97.1402V95.6542C286.143 95.0663 286.258 94.4839 286.481 93.9403C286.705 93.3968 287.034 92.9027 287.45 92.4865C287.865 92.0703 288.358 91.7401 288.901 91.5147C289.444 91.2894 290.026 91.1735 290.614 91.1735Z" fill="#DBDBDB"/>
<path d="M325.223 91.1735H313.074V101.598H325.223V91.1735Z" fill="#A6A6A6"/>
<path d="M290.614 125.488H325.223V135.924H290.614C289.429 135.924 288.292 135.453 287.454 134.615C286.615 133.777 286.145 132.64 286.145 131.454V129.968C286.143 129.38 286.258 128.798 286.481 128.255C286.705 127.711 287.034 127.217 287.45 126.801C287.865 126.385 288.358 126.054 288.901 125.829C289.444 125.604 290.026 125.488 290.614 125.488Z" fill="#DBDBDB"/>
<path d="M325.223 125.488H313.074V135.912H325.223V125.488Z" fill="#A6A6A6"/>
<path d="M452.316 106.885H417.072V120.803H452.316V106.885Z" fill="#505dd1"/>
<path d="M452.316 106.896H417.072V120.814H452.316V106.896Z" fill="#505dd1"/>
<path opacity="0.2" d="M429.447 106.896L428.29 120.814H417.072V106.896H429.447Z" fill="black"/>
<path d="M382.202 81.2704H410.095C411.946 81.2704 413.72 82.0054 415.028 83.3137C416.337 84.622 417.072 86.3965 417.072 88.2467V138.85C417.072 140.7 416.337 142.475 415.028 143.783C413.72 145.092 411.946 145.827 410.095 145.827H382.202V81.2704Z" fill="#505dd1"/>
<path opacity="0.2" d="M397.039 81.2704L392.014 145.827H382.213V81.2704H397.039Z" fill="black"/>
<g opacity="0.2">
<path opacity="0.2" d="M394.441 94.3169H392.218V132.772H394.441V94.3169Z" fill="black"/>
<path opacity="0.2" d="M400.748 94.3159H398.525V132.771H400.748V94.3159Z" fill="black"/>
<path opacity="0.2" d="M407.055 94.3159H404.832V132.771H407.055V94.3159Z" fill="black"/>
</g>
<path d="M449.049 67.942C452.951 78.8885 447.359 118.988 440.746 127.484C430.922 140.076 411.513 151.657 404.095 155.276C400.85 156.853 386.319 133.621 389.484 131.455C396.29 126.792 417.968 115.664 419.805 113.452C421.643 111.24 431.535 89.9938 435.493 78.0491C440.814 62.0093 447.087 62.4177 449.049 67.942Z" fill="#EB9481"/>
<path d="M404.072 155.344C393.784 161.22 373.308 160.358 370.518 159.507L366.911 158.373C362.611 157.159 361.454 154.788 361.454 154.788C361.454 154.788 356.078 154.856 355.488 151.612C354.83 147.971 362.509 148.583 366.945 146.337C377.154 141.199 390.108 131.035 392.887 129.265L404.072 155.344Z" fill="#EB9481"/>
<path d="M381.385 148.447C378.431 149.995 375.372 151.333 372.231 152.452C368.725 153.468 365.15 154.226 361.534 154.72C361.516 154.727 361.501 154.738 361.491 154.754C361.48 154.769 361.474 154.787 361.474 154.805C361.474 154.824 361.48 154.842 361.491 154.857C361.501 154.873 361.516 154.884 361.534 154.891C368.631 154.697 375.54 152.563 381.51 148.72C381.657 148.629 381.532 148.379 381.385 148.447Z" fill="#263238"/>
<path d="M385.378 154.13C382.361 155.378 377.04 157.533 366.899 158.282C366.899 158.282 366.899 158.339 366.899 158.35C373.34 158.795 379.777 157.44 385.491 154.437C385.673 154.3 385.582 154.051 385.378 154.13Z" fill="#263238"/>
<path d="M378.799 139.384C379.853 138.249 379.23 137.637 376.439 138.136C373.649 138.635 363.042 143.014 361.829 139.191C360.615 135.368 375.679 129.401 380.387 128.914C384.64 128.694 388.904 128.819 393.137 129.288C390.437 131.035 384.039 135.89 378.799 139.384Z" fill="#EB9481"/>
<path d="M438.103 70.6988C444.966 56.2585 451.227 60.0812 451.829 74.3628C452.031 84.2805 451.584 94.2009 450.49 104.06L425.614 96.9364C425.614 96.9364 433.713 79.9438 438.103 70.6988Z" fill="#DBDBDB"/>
<path d="M444.296 62.2817C445.685 63.1287 446.852 64.2955 447.699 65.6848C446.31 64.8378 445.143 63.6711 444.296 62.2817ZM434.439 80.5675C434.426 81.3707 434.522 82.1718 434.722 82.9497C434.922 82.1718 435.018 81.3707 435.006 80.5675C435.019 79.7681 434.923 78.9706 434.722 78.1967C434.527 78.9716 434.431 79.7684 434.439 80.5675ZM447.279 83.3694C446.477 83.3628 445.676 83.4581 444.897 83.653C446.463 84.0309 448.096 84.0309 449.662 83.653C448.884 83.4505 448.083 83.3475 447.279 83.3467V83.3694ZM432.227 94.9852C432.787 95.5597 433.42 96.0592 434.11 96.4712C433.263 95.0819 432.096 93.9151 430.707 93.0681C431.127 93.7713 431.638 94.4159 432.227 94.9852ZM449.854 96.664C450.435 96.1085 450.935 95.4747 451.34 94.781C449.951 95.628 448.784 96.7947 447.937 98.1841C448.643 97.7671 449.288 97.2557 449.854 96.664Z" fill="white"/>
<path d="M435.743 75.0997C434.813 76.9941 433.837 78.8544 432.862 80.7715C433.028 79.8867 433.164 78.9906 433.27 78.0831H433.202C433.066 78.7864 432.896 79.4897 432.759 80.193C432.703 80.5333 432.635 80.8736 432.567 81.2139C432.567 81.282 432.567 81.35 432.567 81.4294C431.807 82.8814 431.058 84.3447 430.298 85.8194C429.436 87.589 428.63 89.3699 427.814 91.1509C426.997 92.9318 426.237 95.1098 425.318 96.9134C426.1 97.2389 426.913 97.4822 427.746 97.6394C427.961 97.7188 428.075 97.5032 427.848 97.4692C427.621 97.4352 425.761 96.6979 425.738 96.6865C426.555 94.8829 427.564 93.1814 428.426 91.4118C429.288 89.6422 430.173 87.8953 431.001 86.1143C432.68 82.5071 434.155 78.7977 435.822 75.1791C435.822 75.0884 435.743 75.0543 435.743 75.0997Z" fill="#263238"/>
<path d="M452.861 83.6981C452.634 84.4354 452.373 85.1727 452.18 85.9668C452.112 86.2844 452.033 86.5907 451.953 86.9083C452.044 84.322 452.127 81.7432 452.203 79.172C451.851 83.3918 451.488 87.6002 451.216 91.8201C450.821 95.8612 450.636 99.92 450.66 103.98C449.914 103.804 449.156 103.686 448.392 103.629C449.216 103.979 450.081 104.227 450.967 104.366C451.591 100.282 451.636 95.7676 451.84 91.6612C451.897 90.5269 451.931 89.3925 451.976 88.1788C452.112 87.4641 452.316 86.7608 452.509 86.0575C452.702 85.3542 452.85 84.5375 453.008 83.7888C452.952 83.6754 452.872 83.6527 452.861 83.6981Z" fill="#263238"/>
<path d="M449.48 100.294C445.975 99.0462 431.455 94.4634 428.257 93.6807C428.03 93.624 427.939 93.7488 428.166 93.8282C435.125 96.4144 442.222 98.6146 449.424 100.419C449.514 100.453 449.571 100.317 449.48 100.294Z" fill="#263238"/>
<path d="M327.526 96.4484C330.929 97.492 330.237 92.8412 330.237 92.8412C330.237 92.8412 332.903 99.2843 336.861 99.0007C340.82 98.7171 339.595 93.1248 339.527 92.7164C339.663 93.0567 342.272 98.91 346.22 98.218C350.167 97.5261 348.273 92.0585 348.137 91.7182C348.375 91.9904 351.54 95.609 354.444 94.3952C359.39 92.308 351.495 82.8248 352.073 78.5143L359.027 78.7184C359.255 78.6964 359.483 78.6623 359.707 78.6164L359.968 75.0658C357.746 74.1638 355.599 73.0865 353.548 71.8443C350.928 70.3696 348.398 69.031 346.515 68.9857C345.67 68.9406 344.833 69.1689 344.128 69.6368C343.423 70.1047 342.888 70.7873 342.601 71.5834C342.601 71.5834 340.559 68.3618 337.429 68.8155C335.829 69.0537 334.786 71.8329 334.786 71.8329C334.283 71.1214 333.593 70.5633 332.791 70.2209C331.99 69.8784 331.11 69.765 330.248 69.8932C328.048 70.3469 327.344 73.0694 327.344 73.0694C327.344 73.0694 324.554 71.4245 322.455 72.627C318.247 74.9637 320.175 94.1797 327.526 96.4484Z" fill="#EB9481"/>
<path d="M352.935 78.1062L358.993 78.662C359.221 78.6399 359.448 78.6058 359.673 78.5599C367.319 77.176 372.083 68.4188 366.479 67.7949C362.271 67.3071 357.711 72.8995 353.457 71.7765L352.935 78.1062Z" fill="#EB9481"/>
<path d="M327.197 73.4213H327.095C326.13 80.1312 327.23 86.9756 330.248 93.0456C330.35 93.2385 330.702 93.1477 330.634 92.9208C328.546 86.6226 327.388 80.0536 327.197 73.4213Z" fill="#263238"/>
<path d="M334.786 71.6857C334.786 71.6062 334.661 71.6062 334.65 71.6857C333.628 79.0839 335.286 86.6037 339.324 92.8868C339.471 93.1023 339.823 93.1477 339.664 92.8868C337.146 88.5081 334.786 77.9133 334.786 71.6857Z" fill="#263238"/>
<path d="M348.591 91.99C344.677 85.8191 343.123 79.013 342.545 71.7985C342.545 71.7078 342.408 71.7304 342.386 71.7985C341.716 75.4058 342.567 79.9659 343.52 83.4597C344.352 86.7177 346.022 89.7014 348.364 92.1148C348.477 92.2169 348.681 92.1262 348.591 91.99Z" fill="#263238"/>
<path d="M233.337 347.254C230.989 348.037 163.756 347.844 161.192 346.222C160.228 345.609 159.683 335.808 159.366 323.954C159.286 321.402 159.241 318.759 159.196 316.071C159.196 312.894 159.105 309.673 159.082 306.542C159.003 292.499 159.196 280.134 159.196 280.134H202.97V306.542V316.071L202.743 323.954C202.743 323.954 228.448 335.548 231.102 337.635C233.757 339.722 235.685 346.528 233.337 347.254Z" fill="#AD6359"/>
<path d="M233.337 347.254C230.989 348.036 163.755 347.844 161.192 346.222C160.228 345.609 159.683 335.808 159.365 323.954C159.286 321.402 159.241 318.759 159.195 316.07C159.195 312.894 159.105 309.673 159.082 306.542H202.947V316.07L202.721 323.954C202.721 323.954 228.425 335.547 231.079 337.634C233.734 339.722 235.685 346.528 233.337 347.254Z" fill="white"/>
<path d="M233.541 347.401C232.01 347.912 203.379 348.014 182.495 347.583C177.663 347.469 173.25 347.345 169.7 347.186C164.788 346.959 161.498 346.698 160.965 346.358C159.774 345.598 159.218 331.214 158.946 316.036H202.925L202.698 323.977C202.698 323.977 228.55 335.638 231.182 337.737C233.814 339.835 235.946 346.607 233.541 347.401Z" fill="#505dd1"/>
<path d="M232.543 344.702C221.199 344.384 175.485 344.203 164.255 344.758C164.164 344.758 164.164 344.815 164.255 344.826C175.485 345.382 221.211 345.189 232.543 344.883C232.815 344.872 232.826 344.702 232.543 344.702Z" fill="#263238"/>
<path d="M204.343 321.459C199.885 320.619 194.429 321.289 191.014 324.454C190.878 324.578 191.014 324.76 191.207 324.714C195.472 323.348 199.873 322.447 204.331 322.026C204.407 322.028 204.479 321.999 204.534 321.947C204.588 321.895 204.619 321.823 204.621 321.748C204.622 321.673 204.594 321.6 204.542 321.546C204.49 321.492 204.418 321.46 204.343 321.459Z" fill="#263238"/>
<path d="M207.587 323.432C203.129 322.581 197.673 323.251 194.247 326.427C194.122 326.54 194.247 326.733 194.44 326.688C198.712 325.313 203.12 324.404 207.587 323.977C207.646 323.96 207.698 323.924 207.735 323.875C207.771 323.826 207.791 323.766 207.791 323.704C207.791 323.643 207.771 323.583 207.735 323.534C207.698 323.485 207.646 323.449 207.587 323.432Z" fill="#263238"/>
<path d="M210.775 325.361C206.317 324.51 200.861 325.18 197.446 328.344C197.31 328.469 197.446 328.662 197.628 328.617C201.895 327.254 206.294 326.349 210.752 325.917C210.817 325.907 210.876 325.874 210.92 325.825C210.964 325.776 210.989 325.714 210.992 325.648C210.994 325.583 210.974 325.518 210.935 325.466C210.895 325.413 210.839 325.376 210.775 325.361Z" fill="#263238"/>
<path d="M213.985 327.312C209.527 326.462 204.071 327.131 200.656 330.296C200.52 330.42 200.656 330.613 200.849 330.568C205.11 329.199 209.507 328.294 213.962 327.868C214.027 327.858 214.086 327.826 214.13 327.777C214.174 327.728 214.199 327.665 214.202 327.6C214.204 327.534 214.184 327.47 214.145 327.417C214.105 327.365 214.049 327.328 213.985 327.312Z" fill="#263238"/>
<path d="M212.612 311.17C210.865 308.754 207.598 309.832 205.738 311.386C202.584 314.125 200.205 317.646 198.841 321.595C198.834 321.612 198.831 321.631 198.832 321.649C198.834 321.668 198.84 321.686 198.85 321.702C198.86 321.717 198.874 321.73 198.89 321.74C198.906 321.749 198.925 321.754 198.943 321.754C198.943 322.094 199.261 322.457 199.635 322.31C203.322 320.96 207.44 319.973 210.593 317.523C212.442 316.093 214.268 313.462 212.612 311.17ZM204.808 319.111C203.016 319.814 201.189 320.438 199.42 321.209C200.707 319.185 202.096 317.227 203.583 315.345C204.31 314.441 205.103 313.592 205.954 312.804C207.281 311.59 212.544 309.038 211.739 313.938C211.296 316.627 206.952 318.26 204.808 319.111Z" fill="#263238"/>
<path d="M187.509 320.381C191.173 321.958 195.449 321.89 199.306 322.287C199.393 322.286 199.479 322.266 199.556 322.227C199.634 322.188 199.702 322.132 199.754 322.063C199.807 321.994 199.843 321.914 199.86 321.829C199.876 321.744 199.873 321.656 199.851 321.572C199.865 321.562 199.876 321.548 199.884 321.532C199.892 321.516 199.896 321.499 199.896 321.481C199.896 321.464 199.892 321.446 199.884 321.431C199.876 321.415 199.865 321.401 199.851 321.391C197.562 317.914 194.401 315.098 190.685 313.223C188.484 312.18 185.013 311.953 183.97 314.732C182.926 317.511 185.365 319.462 187.509 320.381ZM185.501 317.205C183.505 312.668 189.233 313.802 190.821 314.653C191.839 315.217 192.821 315.846 193.759 316.536C195.669 317.986 197.501 319.534 199.249 321.175C197.344 320.869 195.427 320.721 193.51 320.483C191.218 320.2 186.601 319.701 185.501 317.205Z" fill="#263238"/>
<path d="M209.187 312.951L154.942 313.926C154.942 313.926 147.557 265.932 142.702 236.087C140.864 224.868 139.412 216.202 138.822 213.593C137.416 207.365 109.93 108.517 109.93 108.517L149.361 108.461H162.837C162.837 108.461 161.975 124.988 162.485 126.724C169.518 150.647 183.89 193.072 188.382 207.853C195.268 230.574 209.187 312.951 209.187 312.951Z" fill="#A6A6A6"/>
<path d="M204.252 304.636C196.47 304.579 168.86 304.273 158.492 305.237C158.477 305.243 158.464 305.253 158.456 305.266C158.447 305.279 158.442 305.295 158.442 305.311C158.442 305.327 158.447 305.342 158.456 305.355C158.464 305.368 158.477 305.379 158.492 305.385C162.065 305.895 196.47 305.101 204.263 304.851C204.28 304.856 204.298 304.856 204.316 304.853C204.333 304.849 204.35 304.841 204.364 304.83C204.378 304.819 204.389 304.804 204.396 304.788C204.403 304.772 204.407 304.754 204.406 304.736C204.405 304.718 204.4 304.701 204.391 304.685C204.382 304.67 204.369 304.656 204.354 304.647C204.339 304.637 204.322 304.631 204.304 304.629C204.286 304.627 204.268 304.629 204.252 304.636Z" fill="#263238"/>
<path d="M155.827 263.731C153.951 251.321 151.86 238.942 149.554 226.592C148.419 220.523 147.183 214.466 145.595 208.443C144.007 202.419 141.987 196.464 139.923 190.554C135.862 178.802 131.982 166.993 128.341 155.105C124.7 143.217 121.308 131.284 118.132 119.248C117.724 117.728 117.327 116.208 116.884 114.711C116.884 114.586 116.669 114.643 116.691 114.711C117.928 120.768 119.527 126.769 121.059 132.758C122.59 138.748 124.235 144.714 125.948 150.659C129.396 162.592 133.136 174.442 137.166 186.209C139.174 192.062 141.262 197.904 143.042 203.837C144.823 209.77 146.207 215.782 147.444 221.839C149.951 234.136 152.083 246.512 154.057 258.887C156.031 271.263 157.721 283.843 159.377 296.321C159.593 297.898 159.797 299.486 160.001 301.074C160.058 301.516 160.761 301.516 160.716 301.074C159.434 288.63 157.676 276.164 155.827 263.731Z" fill="#263238"/>
<path d="M149.361 108.438L142.702 236.087C140.864 224.868 139.412 216.202 138.822 213.593C137.416 207.365 109.93 108.517 109.93 108.517L149.361 108.438Z" fill="#263238"/>
<path d="M166.058 358.007C163.71 358.79 96.4769 358.597 93.9133 356.964C92.9491 356.362 92.4046 346.562 92.0869 334.708C92.0075 332.144 91.9622 329.512 91.9168 326.824C91.9168 323.636 91.826 320.426 91.8034 317.295C91.724 303.252 91.9168 290.887 91.9168 290.887H135.68V326.835L135.453 334.719C135.453 334.719 161.158 346.312 163.812 348.399C166.467 350.486 168.406 357.236 166.058 358.007Z" fill="#AD6359"/>
<path d="M166.058 358.008C163.71 358.791 96.4766 358.598 93.913 356.964C92.9488 356.363 92.4043 346.562 92.0867 334.708C92.0073 332.144 91.9619 329.513 91.9165 326.824C91.9165 323.637 91.8258 320.427 91.8031 317.296H135.669V326.836L135.442 334.719C135.442 334.719 161.146 346.313 163.801 348.4C166.455 350.487 168.406 357.236 166.058 358.008Z" fill="white"/>
<path d="M166.263 358.11C164.731 358.609 136.089 358.711 115.217 358.28C110.396 358.178 105.983 358.041 102.421 357.894C97.5206 357.667 94.231 357.395 93.6865 357.055C92.5522 356.295 91.9396 341.922 91.6787 326.745H135.658L135.431 334.685C135.431 334.685 161.305 346.335 163.937 348.388C166.569 350.441 168.622 357.315 166.263 358.11Z" fill="#505dd1"/>
<path d="M165.298 355.398C153.955 355.092 108.229 354.899 97.0102 355.455C96.9195 355.455 96.9195 355.523 97.0102 355.534C108.229 356.079 153.966 355.897 165.298 355.591C165.537 355.58 165.537 355.41 165.298 355.398Z" fill="#263238"/>
<path d="M137.064 332.167C132.606 331.316 127.15 331.986 123.735 335.15C123.599 335.275 123.735 335.468 123.917 335.423C128.184 334.06 132.583 333.155 137.041 332.723C137.106 332.713 137.166 332.68 137.209 332.631C137.253 332.582 137.278 332.52 137.281 332.454C137.284 332.389 137.263 332.324 137.224 332.272C137.184 332.22 137.128 332.182 137.064 332.167Z" fill="#263238"/>
<path d="M140.274 334.118C135.816 333.268 130.36 333.937 126.946 337.102C126.81 337.226 126.946 337.419 127.139 337.374C131.403 336.004 135.804 335.099 140.263 334.674C140.328 334.663 140.386 334.629 140.428 334.579C140.471 334.529 140.495 334.466 140.496 334.401C140.498 334.335 140.476 334.272 140.436 334.22C140.395 334.169 140.338 334.133 140.274 334.118Z" fill="#263238"/>
<path d="M143.496 336.058C139.038 335.218 133.582 335.888 130.156 339.053C130.031 339.177 130.156 339.359 130.349 339.313C134.616 337.953 139.015 337.052 143.473 336.625C143.549 336.628 143.622 336.601 143.677 336.55C143.733 336.499 143.765 336.428 143.768 336.353C143.771 336.278 143.744 336.204 143.693 336.149C143.642 336.094 143.571 336.061 143.496 336.058Z" fill="#263238"/>
<path d="M146.706 338.009C142.248 337.17 136.792 337.839 133.377 341.004C133.241 341.128 133.377 341.31 133.559 341.265C137.826 339.906 142.226 339.004 146.683 338.576C146.759 338.579 146.832 338.552 146.887 338.501C146.943 338.45 146.975 338.379 146.978 338.304C146.981 338.229 146.954 338.155 146.903 338.1C146.852 338.045 146.781 338.012 146.706 338.009Z" fill="#263238"/>
<path d="M145.333 321.878C143.586 319.451 140.319 320.528 138.448 322.094C135.293 324.833 132.915 328.354 131.551 332.303C131.546 332.321 131.545 332.34 131.548 332.358C131.551 332.377 131.558 332.395 131.569 332.41C131.58 332.425 131.594 332.438 131.611 332.447C131.627 332.456 131.645 332.461 131.664 332.462C131.659 332.549 131.675 332.635 131.71 332.715C131.745 332.794 131.799 332.864 131.867 332.918C131.934 332.973 132.014 333.01 132.099 333.027C132.184 333.045 132.272 333.041 132.356 333.018C136.043 331.668 140.149 330.681 143.314 328.231C145.197 326.835 146.978 324.158 145.333 321.878ZM137.529 329.819C135.725 330.533 133.91 331.146 132.141 331.929C133.49 329.944 134.75 327.913 136.292 326.064C137.026 325.162 137.818 324.31 138.663 323.512C140.002 322.309 145.254 319.757 144.46 324.646C144.063 327.335 139.673 328.968 137.529 329.807V329.819Z" fill="#263238"/>
<path d="M120.242 331.09C123.917 332.666 128.182 332.598 132.05 332.995C132.138 332.996 132.225 332.976 132.303 332.936C132.382 332.897 132.45 332.839 132.502 332.769C132.554 332.698 132.589 332.616 132.603 332.529C132.617 332.442 132.61 332.353 132.583 332.269C132.601 332.264 132.617 332.254 132.63 332.241C132.644 332.228 132.654 332.212 132.661 332.195C132.667 332.178 132.67 332.159 132.668 332.14C132.666 332.122 132.661 332.104 132.651 332.088C130.34 328.615 127.161 325.808 123.429 323.943C121.228 322.9 117.757 322.673 116.714 325.452C115.67 328.231 118.075 330.171 120.242 331.09ZM118.245 327.902C116.249 323.365 121.977 324.499 123.565 325.361C124.586 325.918 125.567 326.543 126.503 327.233C128.41 328.69 130.242 330.242 131.993 331.884C130.076 331.566 128.159 331.43 126.242 331.192C123.94 330.908 119.323 330.409 118.222 327.902H118.245Z" fill="#263238"/>
<path d="M141.794 323.013H88.7179C88.7179 323.013 100.254 158.441 98.3939 149.218C95.3425 134.12 97.373 116.776 104.519 108.382H151.743C151.743 108.382 152.684 121.631 147.806 129.549C147.806 129.549 143.371 132.351 141.227 133.587L141.794 323.013Z" fill="#A6A6A6"/>
<path d="M136.849 314.426C129.498 314.244 131.619 314.188 124.257 314.086C120.662 314.029 97.0329 313.7 93.6299 314.233C93.5505 314.233 93.5505 314.369 93.6299 314.381C97.0329 314.959 120.65 314.88 124.257 314.857C131.608 314.857 129.498 314.755 136.849 314.641C136.871 314.634 136.891 314.62 136.905 314.6C136.919 314.581 136.927 314.558 136.927 314.534C136.927 314.51 136.919 314.486 136.905 314.467C136.891 314.448 136.871 314.433 136.849 314.426Z" fill="#263238"/>
<path d="M150.756 127.472C146.113 129.711 141.669 132.34 137.473 135.333C137.438 135.354 137.413 135.388 137.404 135.428C137.394 135.467 137.4 135.509 137.422 135.543C137.443 135.578 137.477 135.603 137.516 135.612C137.555 135.622 137.597 135.615 137.631 135.594C142.169 133.11 146.706 130.705 151.062 127.983C151.13 127.942 151.179 127.876 151.198 127.8C151.217 127.723 151.205 127.642 151.164 127.574C151.124 127.507 151.058 127.458 150.981 127.439C150.905 127.42 150.824 127.432 150.756 127.472Z" fill="#263238"/>
<path d="M144.732 126.792C144.463 127.708 144.251 128.64 144.097 129.583C143.904 130.323 143.854 131.093 143.95 131.851C143.95 131.999 144.188 131.987 144.256 131.851C144.612 131.136 144.857 130.371 144.982 129.583C145.209 128.709 145.458 127.847 145.651 126.974C145.787 126.418 144.914 126.225 144.732 126.792Z" fill="#263238"/>
<path d="M144.313 122.243C144.438 121.449 144.562 120.666 144.71 119.884C144.857 119.101 145.062 118.25 145.141 117.433C145.141 117.297 145.368 117.343 145.345 117.433C145.22 118.227 145.209 119.044 145.141 119.838C145.073 120.632 145.005 121.438 144.925 122.232C144.766 123.729 144.531 125.216 144.222 126.69C145.006 126.556 145.75 126.25 146.4 125.794C147.003 125.173 147.399 124.38 147.534 123.525C147.761 122.617 147.966 121.71 148.204 120.802C148.525 119.82 148.757 118.81 148.896 117.785C148.896 117.649 149.123 117.694 149.1 117.785C148.915 119.942 148.513 122.074 147.897 124.149C147.765 124.972 147.342 125.72 146.706 126.259C145.887 126.696 144.988 126.962 144.063 127.041C143.961 127.041 143.802 127.041 143.814 126.917C143.903 125.351 144.069 123.792 144.313 122.243Z" fill="#263238"/>
<path d="M106.062 148.617C105.722 145.146 105.155 141.697 104.78 138.226C104.071 131.277 104.492 124.259 106.028 117.445C106.028 117.32 105.858 117.263 105.835 117.445C104.492 123.429 103.868 129.553 103.975 135.685C104.281 141.811 105.37 147.846 105.461 153.982C105.552 160.119 105.075 166.404 104.678 172.597C104.281 178.791 103.873 185.075 103.476 191.303C101.865 216.361 100.379 241.419 98.8475 266.488C98.424 273.475 98.0156 280.471 97.6224 287.473C97.214 294.586 96.7149 301.71 96.488 308.845C96.488 309.457 97.3728 309.412 97.4296 308.845C98.4958 296.265 99.1084 283.639 99.9138 271.059C100.719 258.479 101.434 246.103 102.183 233.626C102.931 221.148 103.691 208.67 104.451 196.192C104.814 189.96 105.192 183.729 105.586 177.498C105.949 171.293 106.402 165.077 106.493 158.86C106.543 155.44 106.399 152.021 106.062 148.617Z" fill="#263238"/>
<path d="M122.783 116.98C122.773 116.963 122.759 116.95 122.742 116.94C122.725 116.931 122.706 116.926 122.687 116.926C122.667 116.926 122.648 116.931 122.631 116.94C122.614 116.95 122.6 116.963 122.59 116.98C122.308 117.802 122.159 118.663 122.148 119.532C122.001 120.462 121.785 121.379 121.501 122.277C120.98 124.082 120.004 125.723 118.665 127.041C115.693 129.821 111.712 130.853 107.877 131.783C107.852 131.791 107.83 131.807 107.814 131.828C107.798 131.85 107.79 131.876 107.79 131.902C107.79 131.929 107.798 131.955 107.814 131.976C107.83 131.997 107.852 132.013 107.877 132.021C110.156 132.124 112.431 131.769 114.57 130.978C116.478 130.394 118.238 129.408 119.732 128.085C121.157 126.728 122.131 124.966 122.522 123.037C122.725 122.029 122.831 121.003 122.84 119.974C122.84 119.487 122.84 118.999 122.84 118.5C122.921 117.994 122.902 117.478 122.783 116.98Z" fill="#263238"/>
<path d="M145.016 53.3198C145.991 61.0334 161.101 89.7099 177.186 102.415C183.085 107.077 214.359 109.833 222.186 109.221C231.34 108.517 232.713 86.7265 227.586 85.025C221.176 82.9037 191.524 80.2834 185.705 78.2189C178.627 75.6552 165.741 59.1957 153.489 49.0092C147.194 43.7345 144.267 47.3871 145.016 53.3198Z" fill="#AD6359"/>
<path d="M222.186 109.232C225.079 109.153 238.317 107.633 241.913 106.385C245.508 105.137 255.525 100.804 254.89 97.957C254.254 95.1098 251.169 96.142 251.169 96.142C251.169 96.142 255.128 93.6351 254.186 90.8332C253.245 88.0314 248.514 89.801 248.514 89.801C248.514 89.801 252.394 86.9311 251.248 84.1973C250.103 81.4635 245.69 84.0385 245.69 84.0385C245.69 84.0385 249.365 81.5769 247.482 79.7166C245.214 77.4479 238.952 82.7907 234.891 83.8683C233.961 84.1179 215.811 87.5096 215.811 87.5096L222.186 109.232Z" fill="#AD6359"/>
<path d="M246.155 83.8225C241.538 87.702 238.85 88.6095 232.974 89.4148C232.954 89.4218 232.936 89.4349 232.924 89.4521C232.912 89.4694 232.905 89.4901 232.905 89.5113C232.905 89.5325 232.912 89.5531 232.924 89.5704C232.936 89.5877 232.954 89.6007 232.974 89.6077C238.793 89.3354 242.332 88.6889 246.348 84.038C246.518 83.8111 246.337 83.641 246.155 83.8225Z" fill="#263238"/>
<path d="M248.912 89.4827C243.773 93.158 240.869 94.0995 234.812 95.4267C234.732 95.4267 234.755 95.5969 234.812 95.5855C240.892 94.8028 244.409 94.0768 249.071 89.789C249.264 89.5734 249.15 89.3125 248.912 89.4827Z" fill="#263238"/>
<path d="M250.851 96.1983C245.622 99.3405 242.48 100.577 236.4 101.087C236.369 101.087 236.341 101.099 236.319 101.121C236.298 101.142 236.286 101.171 236.286 101.201C236.286 101.231 236.298 101.26 236.319 101.281C236.341 101.302 236.369 101.314 236.4 101.314C241.701 101.634 246.915 99.8575 250.919 96.3685C251.226 96.1303 251.18 96.0055 250.851 96.1983Z" fill="#263238"/>
<path d="M211.614 85.127C214.67 83.1525 217.866 81.4047 221.177 79.8976C224.376 78.7632 237.875 78.7632 238.022 81.6899C238.226 85.4559 230.433 86.9646 226.52 87.2142C226.52 87.2142 227.007 95.9147 221.642 98.2174C216.276 100.52 211.614 85.127 211.614 85.127Z" fill="#AD6359"/>
<path d="M237.749 82.7448C235.48 86.3067 230.296 86.2953 226.519 86.8171C226.462 86.82 226.406 86.8373 226.358 86.8673C226.309 86.8973 226.269 86.9391 226.24 86.9889C226.212 87.0386 226.197 87.0947 226.196 87.1519C226.195 87.2091 226.209 87.2657 226.235 87.3162C226.235 90.9802 225.101 96.1302 221.868 98.2968C221.766 98.3649 221.868 98.5123 221.948 98.4556C225.702 96.5953 227.222 91.6495 227.007 87.5998C230.886 87.1347 236.082 86.9192 237.783 82.7561C237.795 82.7334 237.761 82.7221 237.749 82.7448Z" fill="#263238"/>
<path d="M195.166 108.813C195.166 108.813 179.149 104.434 177.197 102.903C175.069 101.229 173.038 99.4341 171.117 97.5259C156.541 83.1989 147.738 63.6653 145.356 56.8592C142.838 49.6107 145.152 42.6684 151.901 47.342C152.444 47.7264 152.967 48.1391 153.467 48.5784C161.407 55.498 182.642 76.5403 185.229 77.6179C187.815 78.6956 200.282 80.329 200.282 80.329L195.166 108.813Z" fill="#f94d53"/>
<path d="M171.117 97.5258C156.541 83.1989 147.738 63.6653 145.356 56.8592C142.838 49.6107 145.152 42.6684 151.901 47.342L171.117 97.5258Z" fill="#263238"/>
<path d="M195.109 79.8296C194.364 82.0189 193.746 84.2498 193.26 86.511C192.705 88.7797 192.126 91.0484 191.661 93.3171C190.651 97.7666 189.894 102.27 189.392 106.805C189.392 106.832 189.403 106.858 189.422 106.877C189.441 106.896 189.467 106.907 189.494 106.907C189.521 106.907 189.547 106.896 189.567 106.877C189.586 106.858 189.597 106.832 189.597 106.805C190.822 102.358 191.729 97.8092 192.659 93.2944C193.124 91.0257 193.544 88.8251 194.009 86.6017C194.474 84.3784 195.03 82.0643 195.28 79.8637C195.284 79.8411 195.28 79.8177 195.267 79.7985C195.254 79.7794 195.234 79.7661 195.212 79.7616C195.189 79.7571 195.166 79.7617 195.146 79.7745C195.127 79.7872 195.114 79.8071 195.109 79.8296Z" fill="#263238"/>
<path d="M160.557 69.0301C160.931 70.7089 161.226 72.4332 161.453 74.2028C161.447 74.1348 161.447 74.0665 161.453 73.9986C161.544 73.0344 161.612 72.0475 161.782 71.0946C161.782 71.0946 161.873 71.0379 161.873 71.0946C161.931 72.0753 161.893 73.0594 161.759 74.0326C161.702 74.4977 161.646 74.9628 161.578 75.4165C161.657 76.1992 161.725 76.9819 161.771 77.7533C161.861 79.228 162.145 85.5236 162.111 86.6013C162.111 86.8281 161.85 86.8508 161.793 86.6013C161.578 85.4669 161.01 79.0124 160.852 77.5264C160.555 74.6928 160.411 71.8452 160.421 68.9961C160.443 68.962 160.534 68.9734 160.557 69.0301Z" fill="#263238"/>
<path d="M162.36 116.152C160.092 118.194 157.324 121.177 141.397 122.289C140.399 122.289 139.378 122.368 138.357 122.289C123.021 121.858 101.502 109.811 100.22 108.858C100.22 108.858 116.748 64.1417 138.607 46.9789C141.726 44.5173 148.419 45.7311 152.605 48.2607C154.102 49.1682 159.048 57.4376 160.046 64.9698C161.044 72.5019 164.618 114.11 162.36 116.152Z" fill="#f94d53"/>
<path d="M149.939 59.4674C146.082 59.785 140.558 53.115 138.743 48.1239C138.618 47.7835 139.616 44.5279 140.637 40.5123C141.25 38.0735 141.874 35.351 142.259 32.8214C142.339 32.2996 143.961 33.5247 143.961 33.5247L147.114 34.8179L157.551 39.1057C156.156 42.1308 155.139 45.3157 154.522 48.5889C154.488 48.9436 154.488 49.3006 154.522 49.6552C154.527 49.7118 154.527 49.7688 154.522 49.8254C154.488 51.8332 153.66 59.1271 149.939 59.4674Z" fill="#AD6359"/>
<path d="M154.477 49.6446C154.482 49.7012 154.482 49.7581 154.477 49.8147C153.925 49.8077 153.375 49.7546 152.832 49.6559C142.169 47.7842 142.929 33.9791 142.929 33.9791L147.126 34.8072L157.562 39.0951C156.168 42.1201 155.151 45.305 154.534 48.5783C154.481 48.9311 154.462 49.2881 154.477 49.6446Z" fill="#263238"/>
<path d="M141.182 16.2037C139.151 21.8074 141.318 38.3917 145.175 42.2939C150.767 47.9657 160.352 48.9072 165.219 42.0784C169.949 35.4764 166.739 13.901 162.394 10.3164C155.985 5.06436 144.176 7.93429 141.182 16.2037Z" fill="#AD6359"/>
<path d="M156.291 27.683C156.291 27.683 156.212 27.7511 156.223 27.7964C156.393 28.9308 156.416 30.2126 155.44 30.7117C155.44 30.7117 155.44 30.7798 155.44 30.7684C156.677 30.4395 156.643 28.7039 156.291 27.683Z" fill="#263238"/>
<path d="M155.146 26.6398C153.331 26.7306 153.648 30.3492 155.327 30.2698C157.006 30.1904 156.666 26.5604 155.146 26.6398Z" fill="#263238"/>
<path d="M163.166 26.9347C163.166 26.9347 163.257 26.9347 163.257 27.0254C163.325 28.1598 163.585 29.4303 164.629 29.7252C163.347 29.7139 163.041 28.0123 163.166 26.9347Z" fill="#263238"/>
<path d="M164.073 25.6757C165.866 25.3921 166.342 28.9993 164.652 29.2716C162.962 29.5438 162.565 25.9252 164.073 25.6757Z" fill="#263238"/>
<path d="M153.739 23.9627C154.215 23.7925 154.635 23.5543 155.1 23.3388C155.606 23.1913 156.049 22.8801 156.359 22.454C156.435 22.3013 156.457 22.1278 156.422 21.9612C156.387 21.7946 156.297 21.6446 156.166 21.5351C155.872 21.3649 155.537 21.2753 155.197 21.2753C154.856 21.2753 154.522 21.3649 154.227 21.5351C153.576 21.7809 153.041 22.2628 152.729 22.885C152.673 23.0289 152.658 23.186 152.687 23.338C152.716 23.49 152.787 23.6306 152.893 23.7435C152.999 23.8564 153.134 23.937 153.284 23.9758C153.434 24.0146 153.592 24.01 153.739 23.9627Z" fill="#263238"/>
<path d="M165.208 24.4504C164.712 24.3957 164.219 24.3124 163.733 24.2008C163.202 24.1838 162.692 23.9924 162.281 23.6563C162.18 23.5224 162.125 23.3591 162.125 23.1912C162.125 23.0234 162.18 22.8601 162.281 22.7261C162.514 22.4782 162.811 22.2986 163.139 22.2066C163.466 22.1147 163.813 22.1139 164.141 22.2043C164.836 22.2762 165.479 22.6037 165.945 23.1232C166.043 23.2512 166.101 23.4051 166.113 23.5659C166.125 23.7266 166.089 23.8873 166.011 24.0283C165.933 24.1692 165.815 24.2842 165.672 24.3592C165.53 24.4341 165.368 24.4658 165.208 24.4504Z" fill="#263238"/>
<path d="M161.589 33.0376C161.702 33.8539 161.774 34.6755 161.804 35.4992C160.27 35.5054 158.744 35.719 157.267 36.1344C156.926 36.2478 156.926 35.9529 157.267 35.726C158.422 35.0384 159.759 34.718 161.101 34.8072C161.101 34.5917 160.715 32.2435 160.84 32.2322C161.449 32.2942 162.048 32.4353 162.621 32.6519C162.269 29.1581 161.362 25.7437 161.055 22.2612C161.055 22.1364 161.226 22.0911 161.26 22.2045C162.356 25.8312 163.082 29.5595 163.426 33.3325C163.528 33.7749 161.906 33.1624 161.589 33.0376Z" fill="#263238"/>
<path d="M142.384 30.0315C145.243 29.8273 144.88 22.8396 144.88 22.8396C144.88 22.8396 149.236 22.0002 151.289 16.0335C151.289 16.0335 156.961 19.4366 161.645 18.5745C168.996 17.1452 168.678 7.5599 165.899 5.64284C161.952 2.92038 155.032 7.03809 155.032 7.03809C155.032 7.03809 144.46 4.23622 141.42 11.4053C140.055 11.5172 138.783 12.1425 137.861 13.1551C136.939 14.1677 136.435 15.4922 136.451 16.8616C136.179 22.0229 140.263 30.1789 142.384 30.0315Z" fill="#263238"/>
<path d="M143.87 23.6789C145.985 23.2875 147.909 22.2017 149.338 20.5934C150.105 19.724 150.651 18.6822 150.93 17.5565C151.208 16.4308 151.211 15.2545 150.937 14.1276C150.944 14.1076 150.957 14.0902 150.974 14.078C150.992 14.0657 151.012 14.0591 151.033 14.0591C151.055 14.0591 151.075 14.0657 151.093 14.078C151.11 14.0902 151.123 14.1076 151.13 14.1276C151.469 15.3075 151.544 16.5478 151.348 17.7598C151.151 18.9718 150.69 20.1253 149.995 21.1379C149.302 22.0977 148.37 22.8599 147.292 23.3493C146.214 23.8387 145.026 24.0383 143.847 23.9285C143.779 23.8717 143.745 23.7016 143.87 23.6789Z" fill="#263238"/>
<path d="M154.749 7.35564C155.66 5.85153 157.087 4.73054 158.764 4.20213C160.803 3.62337 162.985 3.81724 164.89 4.74662C165.648 5.14385 166.288 5.73343 166.746 6.45618C167.203 7.17894 167.463 8.00945 167.499 8.86433C167.522 10.8478 166.861 12.7786 165.627 14.3319C165.627 14.3319 165.525 14.3319 165.559 14.3319C166.543 12.8654 167.047 11.129 167 9.36345C166.969 8.52339 166.701 7.70915 166.227 7.01469C165.754 6.32023 165.093 5.77384 164.323 5.43858C161.282 4.13407 156.859 4.40632 154.907 7.50311C154.851 7.57117 154.681 7.45773 154.749 7.35564Z" fill="#263238"/>
<path d="M144.063 29.7705C144.063 29.7705 140.513 24.3369 138.051 25.5961C135.59 26.8552 138.165 34.6709 140.967 35.8053C141.315 35.9756 141.695 36.0737 142.082 36.0938C142.47 36.1138 142.858 36.0553 143.222 35.9218C143.587 35.7883 143.92 35.5826 144.203 35.317C144.486 35.0513 144.713 34.7313 144.869 34.376L144.063 29.7705Z" fill="#AD6359"/>
<path d="M138.789 27.8083C138.789 27.8083 138.789 27.8651 138.789 27.8878C139.685 28.37 140.471 29.0352 141.094 29.8403C141.718 30.6453 142.165 31.5724 142.407 32.5613C142.299 32.3576 142.147 32.18 141.963 32.041C141.778 31.9019 141.566 31.8047 141.34 31.7561C141.114 31.7075 140.881 31.7087 140.656 31.7596C140.431 31.8105 140.219 31.9099 140.036 32.0508C140.036 32.0508 140.036 32.1643 140.036 32.1529C140.389 32.0529 140.763 32.0646 141.109 32.1865C141.454 32.3084 141.753 32.5345 141.965 32.8336C142.317 33.3371 142.613 33.8771 142.85 34.4443C142.94 34.6258 143.258 34.5351 143.201 34.3309C143.36 31.7559 141.5 28.1487 138.789 27.8083Z" fill="#263238"/>
<path d="M37.0594 379.379H0V372.573H37.0594C66.4165 372.573 74.788 347.447 76.637 326.371C78.089 309.866 78.9738 289.765 79.9153 268.518C83.4432 188.909 87.0958 106.589 119.13 106.589H148.487V113.395H119.107C93.5843 113.395 89.6141 203.225 86.6988 268.802C85.7459 290.162 84.8498 310.331 83.3978 326.995C80.4485 360.764 63.989 379.379 37.0594 379.379Z" fill="#505dd1"/>
<path opacity="0.2" d="M148.487 106.555V113.361H125.074L123.622 106.555H148.487Z" fill="black"/>
<path d="M250.33 153.926H262.83V66.603H250.33V153.926Z" fill="#505dd1"/>
<path d="M250.329 70.7433H202.822V148.878H250.329V70.7433Z" fill="#505dd1"/>
<path opacity="0.2" d="M250.33 70.7433V148.878H238.532L233.235 70.7433H250.33Z" fill="black"/>
<path d="M130.859 116.912H166.104V102.993H130.859V116.912Z" fill="#505dd1"/>
<path d="M166.104 103.005H130.859V116.923H166.104V103.005Z" fill="#505dd1"/>
<path opacity="0.2" d="M153.728 116.912L154.885 103.005H166.103V116.912H153.728Z" fill="black"/>
<path d="M202.822 144.25H173.08C171.229 144.25 169.455 143.515 168.147 142.206C166.838 140.898 166.103 139.124 166.103 137.273V83.2327C166.103 81.3824 166.838 79.608 168.147 78.2997C169.455 76.9914 171.229 76.2564 173.08 76.2564H202.822V144.25Z" fill="#505dd1"/>
<path opacity="0.2" d="M187.191 144.25L192.489 76.2678H202.823V144.25H187.191Z" fill="black"/>
<g opacity="0.2">
<path opacity="0.2" d="M189.925 130.501H192.273V90.005H189.925V130.501Z" fill="black"/>
<path opacity="0.2" d="M183.289 130.501H185.637V90.005H183.289V130.501Z" fill="black"/>
<path opacity="0.2" d="M176.642 130.501H178.99V90.005H176.642V130.501Z" fill="black"/>
</g>
<path d="M128.693 62.7007C127.558 79.0808 126.265 112.442 133.502 122.232C142.997 135.073 169.802 142.866 177.742 145.202C181.145 146.212 189.301 123.65 187.282 120.405C185.263 117.161 157.596 110.196 155.418 108.29C153.24 106.385 146.343 79.7955 143.065 66.2513C138.822 49.1679 129.158 56.2349 128.693 62.7007Z" fill="#AD6359"/>
<path d="M207.724 129.072C212.091 130.116 218.715 127.87 218.931 131.216C219.124 134.188 214.394 135.288 214.394 135.288C214.394 135.288 220.133 135.776 219.43 139.032C218.727 142.287 213.282 142.435 213.282 142.435C213.282 142.435 218.545 143.149 217.604 146.348C216.662 149.547 211.614 149.99 211.614 149.99C211.614 149.99 212.942 150.976 211.263 152.939C208.869 155.752 200.883 155.423 196.766 154.266C192.648 153.109 178.389 145.804 176.223 144.635L183.448 118.091C183.448 118.091 191.741 116.776 196.028 116.617C200.316 116.458 214.575 119.861 213.974 123.423C213.373 126.985 203.334 124.444 200.736 124.353C198.138 124.262 197.685 124.841 198.819 125.794C199.556 126.463 205.784 128.607 207.724 129.072Z" fill="#AD6359"/>
<path d="M214.132 135.231C207.428 136.366 204.297 135.617 198.149 132.963C198.024 132.906 197.922 133.076 198.047 133.144C203.832 136.264 207.632 137.681 214.2 135.538C214.529 135.447 214.461 135.186 214.132 135.231Z" fill="#263238"/>
<path d="M213.542 142.321C206.475 142.832 203.083 142.117 196.436 139.826C196.345 139.826 196.277 139.951 196.368 139.996C202.709 142.775 206.521 144.125 213.519 142.684C213.837 142.628 213.871 142.299 213.542 142.321Z" fill="#263238"/>
<path d="M211.523 149.944C204.638 149.944 200.883 149.309 194.712 146.269C194.684 146.255 194.651 146.252 194.621 146.261C194.59 146.27 194.565 146.291 194.549 146.318C194.533 146.346 194.528 146.378 194.535 146.409C194.542 146.44 194.561 146.467 194.587 146.484C200.577 150.205 205.262 151.022 211.501 150.16C211.92 150.092 211.954 149.944 211.523 149.944Z" fill="#263238"/>
<path d="M156.813 139.882C156.813 139.882 135.181 129.015 131.858 120.689C127.774 110.298 126.106 79.9998 127.695 64.4592C129.283 48.9185 140.104 50.8469 143.575 64.5839C146.979 77.992 154.658 104.774 155.452 106.033C156.462 107.655 168.804 110.707 168.804 110.707" fill="#f94d53"/>
<path d="M154.646 102.562C154.272 101.28 153.614 98.3878 153.24 97.1401C152.48 94.6445 151.72 92.1376 150.971 89.642C150.222 87.1464 149.417 84.6395 148.589 82.1552C148.441 81.7355 148.305 81.3045 148.169 80.8847C148.237 80.6125 147.931 77.3229 147.954 76.5175C147.954 76.3927 147.749 76.3814 147.761 76.5175C147.791 77.3237 147.764 78.1311 147.681 78.9337C147.681 79.0811 147.681 79.2399 147.681 79.3874C147.16 77.7539 146.638 76.1318 146.105 74.5437C146.105 74.4303 145.878 74.4756 145.912 74.5437C146.933 77.9468 147.432 80.0907 148.181 82.8472C148.929 85.6037 149.701 88.1673 150.449 90.7877C151.198 93.408 152.071 96.0738 152.899 98.7282C153.365 100.301 153.91 101.85 154.533 103.368C155.009 104.389 155.032 103.912 154.646 102.562Z" fill="#263238"/>
<path d="M130.247 111.716C129.804 108.914 129.362 106.044 129.022 103.277C128.33 97.6049 127.887 92.0239 127.638 86.3521C127.49 83.1078 127.252 79.8863 127.071 76.6533C127.071 76.6203 127.058 76.5885 127.034 76.5651C127.011 76.5417 126.979 76.5286 126.946 76.5286C126.913 76.5286 126.881 76.5417 126.858 76.5651C126.834 76.5885 126.821 76.6203 126.821 76.6533C126.821 79.5346 126.719 82.4045 126.821 85.2858C126.821 85.7055 126.821 86.1252 126.821 86.5449L126.685 85.9551C126.265 84.3102 125.675 82.6995 125.312 81.032C125.303 81.0127 125.286 80.9976 125.266 80.9894C125.246 80.9813 125.224 80.9806 125.203 80.9874C125.182 80.9943 125.165 81.0082 125.154 81.0268C125.143 81.0454 125.139 81.0673 125.142 81.0887C125.551 82.7448 125.766 84.4917 126.152 86.1139C126.356 86.9419 126.56 87.77 126.787 88.5981L126.901 88.9498C126.969 90.6059 127.048 92.2621 127.161 93.9182C127.469 99.6021 128.124 105.262 129.124 110.866C129.809 114.53 130.8 118.131 132.085 121.631C132.091 121.648 132.103 121.663 132.118 121.673C132.133 121.684 132.151 121.69 132.17 121.69C132.188 121.69 132.206 121.684 132.221 121.673C132.237 121.663 132.248 121.648 132.255 121.631C131.585 118.829 130.701 114.518 130.247 111.716Z" fill="#263238"/>
<path d="M164.788 110.695C163.603 112.732 162.542 114.838 161.612 117.002C160.613 119.135 159.604 121.268 158.662 123.423C156.753 127.667 155.083 132.015 153.66 136.445C153.657 136.47 153.663 136.495 153.676 136.516C153.688 136.538 153.708 136.554 153.731 136.563C153.755 136.572 153.78 136.573 153.804 136.566C153.828 136.559 153.849 136.545 153.864 136.525C155.974 132.328 157.777 127.96 159.615 123.638C160.523 121.506 161.396 119.351 162.292 117.218C163.188 115.085 164.209 112.941 164.901 110.741C164.924 110.673 164.822 110.639 164.788 110.695Z" fill="#263238"/>
</svg>
