<svg width="14" height="14" viewBox="0 0 14 14" fill="none" xmlns="http://www.w3.org/2000/svg">
<path fill-rule="evenodd" clip-rule="evenodd" d="M6.29103 9.0549C5.12754 9.0549 4.1805 8.11135 4.1805 6.95216C4.1805 5.79296 5.12754 4.84941 6.29103 4.84941C7.45451 4.84941 8.40155 5.79296 8.40155 6.95216C8.40155 8.11135 7.45451 9.0549 6.29103 9.0549ZM7.50132 0.179315C5.45225 -0.0125236 3.44824 0.710614 2.0055 2.15825C0.562065 3.60521 -0.148725 5.60727 0.0561138 7.65015C0.300555 10.0801 1.83753 12.1958 4.06822 13.1706C4.96063 13.5604 5.90699 13.7516 6.84652 13.7516C8.32682 13.7516 9.79141 13.2761 11.0006 12.3536C11.3004 12.125 11.3571 11.6978 11.1276 11.3992C10.8982 11.1019 10.4701 11.0454 10.1704 11.2733C8.58764 12.4808 6.46005 12.7284 4.61651 11.9243C2.86309 11.1584 1.60743 9.42772 1.41488 7.51409C1.25101 5.87802 1.81909 4.27528 2.97438 3.11676C4.12831 1.95893 5.73424 1.37933 7.375 1.53443C10.1437 1.7909 12.3116 4.23787 12.3116 7.10525V7.56444C12.3116 7.88281 12.1846 8.17941 11.9531 8.39982C11.7224 8.62023 11.4165 8.73316 11.0976 8.71955C10.4872 8.69302 9.99011 8.1209 9.99011 7.44471V4.50318C9.99011 4.12698 9.6849 3.8229 9.30731 3.8229C8.95977 3.8229 8.68528 4.08344 8.64158 4.41814C8.02161 3.84671 7.19952 3.48888 6.29072 3.48888C4.37411 3.48888 2.81461 5.04332 2.81461 6.95218C2.81461 8.86173 4.37411 10.4155 6.29072 10.4155C7.45147 10.4155 8.47498 9.83997 9.10657 8.96649C9.54697 9.60596 10.2455 10.0441 11.0375 10.0788C11.7292 10.1155 12.3942 9.86242 12.8974 9.38282C13.4007 8.90323 13.6772 8.25764 13.6772 7.56444V7.10525C13.6772 3.54262 10.9651 0.501088 7.50132 0.179315Z" fill="#9DA8B6"/>
</svg>
