<svg width="18" height="20" viewBox="0 0 14 11" fill="none" xmlns="http://www.w3.org/2000/svg">
<path fill-rule="evenodd" clip-rule="evenodd" d="M7.15017 4.41249C6.58549 4.41249 6.12597 4.87032 6.12597 5.43291C6.12597 5.9955 6.58549 6.45333 7.15017 6.45333C7.71484 6.45333 8.17436 5.9955 8.17436 5.43291C8.17436 4.87032 7.71484 4.41249 7.15017 4.41249ZM7.1503 7.81388C5.8325 7.81388 4.76052 6.74584 4.76052 5.4329C4.76052 4.11996 5.8325 3.05192 7.1503 3.05192C8.46809 3.05192 9.54008 4.11996 9.54008 5.4329C9.54008 6.74584 8.46809 7.81388 7.1503 7.81388ZM13.8881 5.09413C13.4517 4.33766 11.0463 0.545776 6.96519 0.672988C3.19137 0.768908 0.995502 4.08187 0.412395 5.09413C0.292223 5.30433 0.292223 5.56148 0.412395 5.77169C0.842556 6.51795 3.16406 10.1949 7.16729 10.1949C7.2226 10.1949 7.27859 10.1942 7.33526 10.1928C11.1091 10.0969 13.3049 6.78394 13.8881 5.77169C14.0082 5.56148 14.0082 5.30433 13.8881 5.09413Z" fill="#9DA8B6"/>
</svg>
