<svg width="117" height="63" viewBox="0 0 117 63" fill="none" xmlns="http://www.w3.org/2000/svg">
<path d="M25.0391 33.4062C23.9844 34.6693 22.4935 35.6523 20.5664 36.3555C18.6393 37.0456 16.5039 37.3906 14.1602 37.3906C11.6992 37.3906 9.53776 36.8568 7.67578 35.7891C5.82682 34.7083 4.39453 33.1458 3.37891 31.1016C2.3763 29.0573 1.86198 26.6549 1.83594 23.8945V21.9609C1.83594 19.1224 2.3112 16.668 3.26172 14.5977C4.22526 12.5143 5.60547 10.9258 7.40234 9.83203C9.21224 8.72526 11.3281 8.17188 13.75 8.17188C17.1224 8.17188 19.7591 8.97917 21.6602 10.5938C23.5612 12.1953 24.6875 14.5326 25.0391 17.6055H19.3359C19.0755 15.9779 18.4961 14.7865 17.5977 14.0312C16.7122 13.276 15.4883 12.8984 13.9258 12.8984C11.9336 12.8984 10.4167 13.6471 9.375 15.1445C8.33333 16.6419 7.80599 18.8685 7.79297 21.8242V23.6406C7.79297 26.6224 8.35938 28.875 9.49219 30.3984C10.625 31.9219 12.2852 32.6836 14.4727 32.6836C16.6732 32.6836 18.2422 32.2148 19.1797 31.2773V26.375H13.8477V22.0586H25.0391V33.4062ZM28.5547 26.2383C28.5547 24.1419 28.9583 22.2734 29.7656 20.6328C30.5729 18.9922 31.7318 17.7227 33.2422 16.8242C34.7656 15.9258 36.5299 15.4766 38.5352 15.4766C41.3867 15.4766 43.7109 16.349 45.5078 18.0938C47.3177 19.8385 48.3268 22.2083 48.5352 25.2031L48.5742 26.6484C48.5742 29.8906 47.6693 32.4948 45.8594 34.4609C44.0495 36.4141 41.6211 37.3906 38.5742 37.3906C35.5273 37.3906 33.0924 36.4141 31.2695 34.4609C29.4596 32.5078 28.5547 29.8516 28.5547 26.4922V26.2383ZM34.1992 26.6484C34.1992 28.6536 34.5768 30.1901 35.332 31.2578C36.0872 32.3125 37.168 32.8398 38.5742 32.8398C39.9414 32.8398 41.0091 32.319 41.7773 31.2773C42.5456 30.2227 42.9297 28.543 42.9297 26.2383C42.9297 24.2721 42.5456 22.7487 41.7773 21.668C41.0091 20.5872 39.9284 20.0469 38.5352 20.0469C37.1549 20.0469 36.0872 20.5872 35.332 21.668C34.5768 22.7357 34.1992 24.3958 34.1992 26.6484ZM51.1719 26.2773C51.1719 22.9831 51.9076 20.3594 53.3789 18.4062C54.8633 16.4531 56.888 15.4766 59.4531 15.4766C61.5104 15.4766 63.2096 16.2448 64.5508 17.7812V7H70.2148V37H65.1172L64.8438 34.7539C63.4375 36.5117 61.6276 37.3906 59.4141 37.3906C56.9271 37.3906 54.9284 36.4141 53.418 34.4609C51.9206 32.4948 51.1719 29.7669 51.1719 26.2773ZM56.8164 26.6875C56.8164 28.6667 57.1615 30.1836 57.8516 31.2383C58.5417 32.293 59.5443 32.8203 60.8594 32.8203C62.6042 32.8203 63.8346 32.0846 64.5508 30.6133V22.2734C63.8477 20.8021 62.6302 20.0664 60.8984 20.0664C58.1771 20.0664 56.8164 22.2734 56.8164 26.6875ZM86.8359 37C86.5755 36.4922 86.3867 35.8607 86.2695 35.1055C84.9023 36.6289 83.125 37.3906 80.9375 37.3906C78.8672 37.3906 77.1484 36.7917 75.7812 35.5938C74.4271 34.3958 73.75 32.8854 73.75 31.0625C73.75 28.8229 74.5768 27.1042 76.2305 25.9062C77.8971 24.7083 80.2995 24.1029 83.4375 24.0898H86.0352V22.8789C86.0352 21.9023 85.7812 21.1211 85.2734 20.5352C84.7786 19.9492 83.9909 19.6562 82.9102 19.6562C81.9596 19.6562 81.2109 19.8841 80.6641 20.3398C80.1302 20.7956 79.8633 21.4206 79.8633 22.2148H74.2188C74.2188 20.9909 74.5964 19.8581 75.3516 18.8164C76.1068 17.7747 77.1745 16.9609 78.5547 16.375C79.9349 15.776 81.4844 15.4766 83.2031 15.4766C85.8073 15.4766 87.8711 16.1341 89.3945 17.4492C90.931 18.7513 91.6992 20.5872 91.6992 22.957V32.1172C91.7122 34.1224 91.9922 35.6393 92.5391 36.668V37H86.8359ZM82.168 33.0742C83.0013 33.0742 83.7695 32.8919 84.4727 32.5273C85.1758 32.1497 85.6966 31.6484 86.0352 31.0234V27.3906H83.9258C81.1003 27.3906 79.5964 28.3672 79.4141 30.3203L79.3945 30.6523C79.3945 31.3555 79.6419 31.9349 80.1367 32.3906C80.6315 32.8464 81.3086 33.0742 82.168 33.0742ZM101.23 15.8672L101.406 18.3086C102.917 16.4206 104.941 15.4766 107.48 15.4766C109.72 15.4766 111.387 16.1341 112.48 17.4492C113.574 18.7643 114.134 20.7305 114.16 23.3477V37H108.516V23.4844C108.516 22.2865 108.255 21.4206 107.734 20.8867C107.214 20.3398 106.348 20.0664 105.137 20.0664C103.548 20.0664 102.357 20.7435 101.562 22.0977V37H95.918V15.8672H101.23Z" fill="white"/>
<rect x="29" y="60" width="69" height="3" rx="1" fill="white"/>
</svg>
