<svg width="95" height="99" viewBox="0 0 95 99" fill="none" xmlns="http://www.w3.org/2000/svg">
<path d="M0.763253 37.4661L92.3791 36.8086L94.9316 98.816L0.0683594 97.9393L0.763253 37.4661Z" fill="#407BFF"/>
<path d="M0.763672 37.4663L47.2734 0.000244141L92.3795 36.8088" fill="#407BFF"/>
<g opacity="0.3">
<path opacity="0.3" d="M0.763672 37.4663L47.2734 0.000244141L92.3795 36.8088" fill="black"/>
</g>
<path d="M0.067786 97.9399C-0.0491763 97.8372 7.28505 89.8645 16.4494 80.1315C25.6137 70.3985 33.1268 62.604 33.2438 62.7135C33.3608 62.8231 26.0265 70.789 16.8622 80.5219C7.69785 90.2549 0.184748 98.0495 0.067786 97.9399Z" fill="white"/>
<path d="M94.9331 98.816C94.8162 98.9188 87.6746 91.1105 78.985 81.3707C70.2954 71.6308 63.3396 63.6513 63.4565 63.5623C63.5735 63.4732 70.7151 71.2678 79.4047 81.0076C88.0943 90.7474 95.0501 98.7133 94.9331 98.816Z" fill="white"/>
<g opacity="0.5">
<path opacity="0.5" d="M92.3795 36.8086L46.3721 73.398L0.763672 37.4661" fill="black"/>
</g>
<path d="M5.37979 40.8569L5.24219 14.3293L85.4852 12.3704L86.359 41.398L46.3716 72.9188L5.37979 40.8569Z" fill="#F3F3F3"/>
<path d="M47.4947 63.384C36.4796 63.4114 27.5217 54.5415 27.4941 43.5756C27.4941 42.8085 27.5354 42.0414 27.6249 41.2742C28.8633 30.37 38.75 22.5275 49.7101 23.7604C60.6633 24.9933 68.541 34.8358 67.2957 45.7469C66.1536 55.7812 57.636 63.3703 47.4947 63.384ZM47.4396 24.3426C36.803 24.3563 28.1822 32.9522 28.1959 43.5414C28.2097 54.1305 36.8442 62.7128 47.4809 62.6991C57.2714 62.6854 65.4931 55.3702 66.6008 45.6921C67.8048 35.1714 60.216 25.6645 49.6482 24.459C49.6413 24.459 49.6344 24.459 49.6206 24.459C48.8982 24.3631 48.1689 24.3152 47.4396 24.3015V24.3426Z" fill="#006156"/>
<path d="M33.8828 46.2681L37.2197 42.1996L45.0217 47.8092L57.7018 32.9324L61.5272 36.2817L45.2144 54.9942L33.8828 46.2681Z" fill="#006156"/>
</svg>
