<svg width="11" height="14" viewBox="0 0 11 14" fill="none" xmlns="http://www.w3.org/2000/svg">
<path fill-rule="evenodd" clip-rule="evenodd" d="M2.64502 3.95464L2.87926 6.05505L2.40524 6.09275C1.74423 6.14533 1.20448 6.64039 1.09733 7.29238C0.850369 8.79505 0.850369 10.3277 1.09733 11.8304C1.20448 12.4824 1.74423 12.9775 2.40524 13.03L3.4268 13.1113C5.03966 13.2396 6.66022 13.2396 8.27308 13.1113L9.29463 13.03C9.95564 12.9775 10.4954 12.4824 10.6025 11.8304C10.8495 10.3277 10.8495 8.79505 10.6025 7.29238C10.4954 6.64039 9.95564 6.14533 9.29463 6.09275L8.82054 6.05505L9.05478 3.95464C9.0824 3.70704 9.0824 3.45714 9.05478 3.20954L9.03924 3.07015C8.87435 1.59164 7.70773 0.421787 6.22484 0.247973C5.97574 0.218775 5.72406 0.218775 5.47496 0.247973C3.99208 0.421787 2.82545 1.59164 2.66056 3.07015L2.64502 3.20954C2.6174 3.45714 2.6174 3.70704 2.64502 3.95464ZM6.10517 1.2614C5.93558 1.24152 5.76423 1.24152 5.59463 1.2614C4.58503 1.37974 3.79075 2.17621 3.67849 3.18284L3.66295 3.32222C3.64369 3.49494 3.64369 3.66924 3.66295 3.84196L3.90111 5.97749C5.19897 5.89456 6.50083 5.89456 7.7987 5.97748L8.03685 3.84196C8.05612 3.66924 8.05612 3.49494 8.03685 3.32222L8.02131 3.18284C7.90905 2.17622 7.11477 1.37974 6.10517 1.2614ZM5.84992 8.54097C5.28427 8.54097 4.82572 8.99783 4.82572 9.56139C4.82572 10.125 5.28427 10.5818 5.84992 10.5818C6.41556 10.5818 6.87411 10.125 6.87411 9.56139C6.87411 8.99783 6.41556 8.54097 5.84992 8.54097Z" fill="#9DA8B6"/>
</svg>
