<svg width="27" height="24" viewBox="0 0 27 24" fill="none" xmlns="http://www.w3.org/2000/svg">
<path d="M21.0135 11H5.57298C4.35475 11 3.36719 11.8954 3.36719 13V20C3.36719 21.1046 4.35475 22 5.57298 22H21.0135C22.2317 22 23.2193 21.1046 23.2193 20V13C23.2193 11.8954 22.2317 11 21.0135 11Z" stroke="#ffffff" stroke-width="2" stroke-linecap="round" stroke-linejoin="round"/>
<path d="M7.7793 11V7C7.7793 5.67392 8.36028 4.40215 9.39445 3.46447C10.4286 2.52678 11.8312 2 13.2938 2C14.7563 2 16.1589 2.52678 17.1931 3.46447C18.2272 4.40215 18.8082 5.67392 18.8082 7V11" stroke="#ffffff" stroke-width="2" stroke-linecap="round" stroke-linejoin="round"/>
</svg>
