<?xml version="1.0" standalone="no"?>
<!DOCTYPE svg PUBLIC "-//W3C//DTD SVG 20010904//EN"
 "http://www.w3.org/TR/2001/REC-SVG-20010904/DTD/svg10.dtd">
<svg version="1.0" xmlns="http://www.w3.org/2000/svg"
 width="1626.000000pt" height="1080.000000pt" viewBox="0 0 1626.000000 1080.000000"
 preserveAspectRatio="xMidYMid meet">
<metadata>
Created by potrace 1.16, written by Peter Selinger 2001-2019
</metadata>
<g transform="translate(0.000000,1080.000000) scale(0.100000,-0.100000)"
fill="#000000" stroke="none">
<path d="M4536 7008 c-23 -33 -20 -69 13 -119 l28 -45 -106 -17 c-120 -20
-238 -59 -358 -119 -225 -114 -454 -354 -574 -604 -79 -162 -89 -219 -89 -479
0 -174 4 -244 19 -326 45 -247 140 -418 338 -610 104 -101 266 -216 386 -273
40 -19 115 -47 167 -62 84 -23 118 -27 285 -31 151 -4 209 -2 280 12 187 34
362 109 505 216 100 75 261 244 334 352 l60 87 63 -122 c112 -214 197 -311
349 -398 281 -161 595 -193 864 -89 87 33 231 124 308 194 53 48 160 179 200
245 45 75 90 177 101 228 6 29 11 127 11 218 0 192 -12 259 -72 397 -140 323
-340 504 -648 584 -128 34 -367 38 -475 9 -180 -49 -328 -139 -482 -293 -57
-56 -103 -106 -103 -112 0 -6 15 -8 36 -5 31 3 50 19 117 90 141 151 291 246
442 279 95 21 303 16 400 -11 133 -36 275 -114 345 -189 l35 -38 -45 27 c-77
47 -222 114 -285 131 -92 25 -323 31 -410 11 -162 -38 -372 -173 -493 -316
-68 -81 -88 -93 -146 -93 -76 0 -102 42 -42 67 18 8 36 18 39 23 10 16 -49
128 -88 168 -56 56 -126 85 -206 85 -53 0 -89 -8 -186 -44 -66 -25 -221 -77
-344 -117 -128 -41 -238 -82 -257 -96 -44 -33 -72 -92 -74 -156 -2 -42 10 -86
64 -232 36 -98 70 -181 76 -183 5 -1 101 25 212 58 111 34 204 59 207 56 12
-11 -40 -124 -82 -181 -150 -201 -390 -306 -638 -277 -187 22 -304 78 -416
197 -122 131 -182 284 -184 470 -1 128 16 205 68 310 66 134 187 254 320 316
64 30 145 52 145 39 0 -4 -15 -27 -34 -51 -18 -24 -36 -54 -40 -65 -14 -44 31
-94 83 -94 16 0 307 98 576 195 55 20 193 68 306 106 226 77 269 102 269 158
0 51 2 50 -370 224 -698 326 -678 317 -735 317 -44 0 -57 -4 -69 -22z m545
-269 c200 -94 389 -183 419 -197 30 -14 48 -27 40 -29 -15 -4 -777 349 -821
381 -54 37 17 7 362 -155z m-439 54 c44 -40 5 -63 -137 -82 -222 -30 -437
-143 -617 -325 -100 -100 -194 -230 -255 -350 -24 -48 -47 -86 -50 -83 -11 12
20 115 57 189 81 162 230 343 369 448 96 73 249 147 356 171 50 11 113 26 140
34 71 18 115 18 137 -2z m1048 -783 c35 -18 70 -54 70 -72 0 -4 -19 -1 -41 7
-23 8 -58 15 -78 15 -42 0 -683 -214 -723 -242 -33 -23 -48 -17 -48 18 0 54
41 76 290 159 129 43 271 91 315 106 95 34 161 37 215 9z m1080 -189 c0 -21
-19 -31 -60 -31 -133 0 -300 -167 -300 -300 0 -42 -10 -60 -32 -60 -19 0 -20
5 -16 63 6 70 40 151 88 210 65 77 182 136 273 137 40 0 47 -3 47 -19z m-1345
-553 c-58 -200 -270 -391 -505 -455 -50 -14 -102 -18 -220 -18 -175 0 -247 14
-365 70 -65 32 -151 92 -142 101 2 2 38 -12 80 -31 121 -56 230 -78 377 -78
171 1 316 41 457 124 74 45 215 178 264 251 41 59 66 76 54 36z"/>
<path d="M10210 6360 c-60 -13 -129 -57 -162 -105 -15 -22 -104 -224 -197
-450 -92 -225 -175 -427 -184 -448 -9 -21 -12 -35 -7 -32 6 4 17 -1 26 -9 8
-9 25 -16 36 -16 17 0 19 -4 13 -27 -10 -41 -33 -73 -61 -83 -36 -14 -49 -12
-74 8 l-22 18 28 34 c28 32 29 38 27 129 -3 230 -78 437 -215 600 -149 176
-395 304 -652 340 -43 6 -211 11 -375 11 -326 0 -355 -4 -422 -59 -19 -16 -48
-53 -64 -82 l-30 -54 -3 -764 c-3 -849 -4 -830 63 -908 19 -23 61 -54 93 -70
l57 -28 315 1 c276 1 327 3 416 22 203 41 380 128 516 251 54 50 69 59 63 41
-14 -42 -8 -143 9 -185 41 -97 142 -158 262 -158 127 0 216 67 270 204 l27 69
312 0 311 0 33 -73 c41 -94 80 -141 145 -174 42 -22 64 -26 126 -26 83 1 133
18 191 64 l36 28 23 -24 c61 -65 217 -90 311 -48 58 26 115 83 143 142 20 43
21 66 26 405 l5 359 343 -421 c188 -232 357 -433 375 -446 56 -42 107 -59 183
-59 121 0 211 59 262 170 16 35 17 100 17 843 0 799 0 805 -21 851 -48 104
-142 162 -259 162 -91 0 -161 -30 -215 -91 -67 -75 -70 -99 -70 -488 l0 -342
38 -9 c48 -11 55 -42 16 -72 -30 -24 -61 -27 -99 -9 -29 13 -33 44 -6 53 55
17 54 19 -270 417 -172 211 -337 409 -368 440 -75 78 -125 101 -221 101 -93 0
-153 -26 -210 -91 -70 -79 -70 -76 -70 -707 l0 -562 40 -27 c47 -31 51 -56 14
-85 -32 -25 -61 -27 -92 -5 -28 19 -28 29 3 66 23 27 24 32 12 61 -8 18 -123
299 -258 626 -266 648 -271 658 -367 699 -59 25 -132 34 -192 22z m122 -66
c48 -25 35 -39 -31 -36 -70 4 -106 -11 -168 -71 -34 -33 -43 -37 -43 -22 0 24
36 100 55 115 47 39 127 45 187 14z m-1792 -18 c173 -3 206 -7 290 -30 95 -27
217 -80 255 -111 l20 -17 -20 8 c-257 94 -323 104 -670 104 -160 0 -286 -4
-308 -11 -21 -6 -56 -26 -76 -45 -21 -19 -41 -34 -45 -34 -11 0 -6 40 8 69 33
62 86 78 251 74 55 -2 188 -5 295 -7z m185 -481 c224 -59 353 -248 331 -485
-11 -127 -56 -220 -145 -303 -90 -84 -218 -126 -383 -127 l-88 0 0 465 0 465
113 0 c69 0 136 -6 172 -15z m1619 -509 c36 -105 66 -193 66 -198 0 -4 -61 -8
-136 -8 -105 0 -135 3 -132 13 3 6 34 96 69 199 35 102 65 186 65 185 1 -1 32
-87 68 -191z m-1286 -273 c-59 -98 -166 -173 -298 -209 -82 -22 -331 -27 -352
-6 -21 21 8 32 82 32 224 1 437 86 553 221 53 63 62 41 15 -38z m1430 25 c2
-9 -6 -26 -17 -37 -19 -19 -33 -21 -180 -21 -88 0 -166 3 -175 6 -29 11 -18
34 17 35 80 3 236 18 272 27 54 13 79 10 83 -10z"/>
<path d="M8580 3945 l0 -135 35 0 35 0 0 135 0 135 -35 0 -35 0 0 -135z"/>
<path d="M9720 3945 l0 -135 35 0 35 0 0 135 0 135 -35 0 -35 0 0 -135z"/>
<path d="M11610 3945 l0 -135 35 0 34 0 3 66 c3 70 18 94 52 81 13 -5 16 -21
16 -77 l0 -70 36 0 36 0 -3 79 c-5 100 -20 121 -91 121 l-48 0 0 35 c0 33 -2
35 -35 35 l-35 0 0 -135z"/>
<path d="M7970 4030 c0 -11 -7 -20 -15 -20 -8 0 -15 -9 -15 -20 0 -11 7 -20
15 -20 12 0 15 -13 15 -60 0 -78 23 -105 82 -97 49 7 52 10 39 36 -7 13 -20
20 -34 18 -20 -2 -22 3 -25 51 -3 50 -2 52 22 52 19 0 26 5 26 20 0 15 -7 20
-25 20 -18 0 -25 5 -25 20 0 16 -7 20 -30 20 -23 0 -30 -4 -30 -20z"/>
<path d="M11460 4030 c0 -11 -7 -20 -15 -20 -8 0 -15 -9 -15 -20 0 -11 7 -20
15 -20 12 0 15 -13 15 -60 0 -78 23 -105 82 -97 49 7 52 10 39 36 -7 13 -20
20 -34 18 -20 -2 -22 3 -25 51 -3 50 -2 52 22 52 19 0 26 5 26 20 0 15 -7 20
-25 20 -18 0 -25 5 -25 20 0 16 -7 20 -30 20 -23 0 -30 -4 -30 -20z"/>
<path d="M7535 3996 c-11 -8 -16 -19 -12 -30 6 -14 15 -16 55 -10 40 5 50 3
55 -10 5 -13 -2 -16 -42 -16 -71 0 -103 -46 -67 -95 11 -15 29 -20 95 -22 l81
-3 0 78 c0 69 -3 81 -23 100 -27 26 -111 31 -142 8z"/>
<path d="M7759 3981 c-33 -34 -40 -91 -14 -128 33 -47 133 -54 170 -13 18 20
18 21 -1 35 -23 18 -25 18 -48 0 -28 -21 -43 -19 -62 10 -14 21 -15 31 -6 50
12 26 55 35 67 15 9 -14 28 -12 51 5 19 15 19 15 -5 35 -16 14 -38 20 -73 20
-41 0 -54 -5 -79 -29z"/>
<path d="M8110 3945 c0 -111 23 -133 138 -134 l62 0 0 100 0 99 -30 0 -30 0 0
-64 c0 -69 -14 -92 -50 -81 -18 6 -20 15 -20 76 l0 69 -35 0 -35 0 0 -65z"/>
<path d="M8375 3996 c-11 -8 -16 -19 -12 -30 6 -14 15 -16 55 -10 40 5 50 3
55 -10 5 -13 -2 -16 -42 -16 -71 0 -103 -46 -67 -95 11 -15 29 -20 95 -22 l81
-3 0 78 c0 69 -3 81 -23 100 -27 26 -111 31 -142 8z"/>
<path d="M8790 3991 c0 -16 8 -20 46 -23 l46 -3 -46 -56 c-25 -31 -46 -66 -46
-78 0 -20 5 -21 90 -21 89 0 90 0 90 25 0 23 -4 25 -45 25 -25 0 -45 3 -45 6
0 3 20 30 45 58 67 79 63 86 -45 86 -82 0 -90 -2 -90 -19z"/>
<path d="M9110 3909 l0 -99 35 0 34 0 3 66 c3 70 18 94 52 81 13 -5 16 -21 16
-77 l0 -70 36 0 36 0 -3 79 c-6 111 -16 121 -125 120 l-84 -1 0 -99z"/>
<path d="M9374 3985 c-33 -33 -33 -93 0 -132 20 -24 32 -28 75 -28 50 0 60 -9
29 -29 -11 -7 -29 -6 -58 4 -43 14 -59 7 -60 -27 0 -17 77 -36 124 -30 69 9
81 31 84 156 l4 109 -87 1 c-79 1 -88 -2 -111 -24z"/>
<path d="M9830 3945 c0 -111 23 -133 138 -134 l62 0 0 100 0 99 -30 0 -30 0 0
-64 c0 -69 -14 -92 -50 -81 -18 6 -20 15 -20 76 l0 69 -35 0 -35 0 0 -65z"/>
<path d="M10066 3998 c4 -7 20 -29 35 -48 l27 -36 -34 -44 c-18 -25 -34 -48
-34 -52 0 -5 15 -8 34 -8 26 0 38 6 51 27 l18 27 21 -27 c16 -19 31 -27 54
-27 18 0 32 3 32 8 0 4 -16 27 -34 51 l-34 45 35 45 35 46 -33 3 c-26 3 -38
-2 -54 -21 l-20 -25 -18 24 c-13 17 -28 24 -53 24 -25 0 -33 -3 -28 -12z"/>
<path d="M10280 3945 c0 -111 23 -133 138 -134 l62 0 0 100 0 99 -30 0 -30 0
0 -64 c0 -69 -14 -92 -50 -81 -18 6 -20 15 -20 76 l0 69 -35 0 -35 0 0 -65z"/>
<path d="M10530 3910 l0 -100 35 0 35 0 0 63 c0 65 11 87 41 87 10 0 19 9 21
21 2 14 16 -9 42 -70 43 -102 42 -124 -2 -115 -22 5 -31 2 -36 -12 -15 -38 58
-59 100 -29 18 12 44 65 111 223 l13 32 -33 0 c-30 0 -34 -4 -52 -51 -11 -28
-23 -53 -26 -55 -4 -2 -15 20 -26 49 l-20 52 -102 2 -101 2 0 -99z"/>
<path d="M10990 4003 c0 -3 15 -48 33 -100 31 -90 33 -93 63 -93 27 0 32 5 49
52 l19 53 18 -40 c9 -22 18 -46 18 -52 0 -8 13 -13 33 -13 32 0 33 1 65 93 18
50 32 95 32 100 0 4 -13 7 -28 7 -26 0 -30 -5 -47 -57 l-18 -58 -20 58 c-20
54 -23 58 -51 55 -25 -3 -32 -10 -49 -57 l-21 -54 -19 56 c-17 52 -21 57 -48
57 -16 0 -29 -3 -29 -7z"/>
<path d="M11989 3981 c-59 -59 -29 -151 55 -166 41 -8 72 -2 101 19 19 14 19
16 4 31 -15 15 -21 15 -53 4 -32 -12 -38 -11 -53 4 -16 16 -13 17 55 17 l72 0
0 31 c0 20 -10 40 -29 60 -24 24 -38 29 -76 29 -38 0 -52 -5 -76 -29z"/>
<path d="M12205 3996 c-11 -8 -16 -19 -12 -30 6 -14 15 -16 55 -10 40 5 50 3
55 -10 5 -13 -2 -16 -42 -16 -71 0 -103 -46 -67 -95 11 -15 29 -20 95 -22 l81
-3 0 78 c0 69 -3 81 -23 100 -27 26 -111 31 -142 8z"/>
<path d="M12422 3994 c-25 -17 -30 -65 -8 -83 8 -7 30 -15 50 -18 20 -3 39
-10 42 -14 9 -16 -25 -21 -58 -10 -28 10 -35 9 -45 -6 -19 -25 -16 -30 23 -43
70 -24 154 7 154 56 0 25 -36 51 -78 58 -58 9 -55 30 3 23 38 -4 47 -1 56 15
8 16 8 23 -2 29 -23 15 -113 10 -137 -7z"/>
<path d="M12619 3981 c-59 -59 -29 -151 55 -166 41 -8 72 -2 101 19 19 14 19
16 4 31 -15 15 -21 15 -53 4 -32 -12 -38 -11 -53 4 -16 16 -13 17 55 17 l72 0
0 31 c0 20 -10 40 -29 60 -24 24 -38 29 -76 29 -38 0 -52 -5 -76 -29z"/>
</g>
</svg>
