<svg width="36" height="31" viewBox="0 0 36 31" fill="none" xmlns="http://www.w3.org/2000/svg">
<path d="M12.2452 11.8333L16.734 8.66667H25.9173V11.8333H17.7727L13.2507 15H2.16733V11.8333H12.2452ZM13.6956 19.845L18.3268 18.1588L19.4098 21.1354L14.7786 22.8201C14.9966 24.5581 14.5667 26.3156 13.571 27.7568C12.5754 29.198 11.0837 30.2219 9.3809 30.6329C7.67812 31.044 5.8836 30.8133 4.3401 29.9851C2.79659 29.1569 1.61228 27.789 1.01337 26.1429C0.414466 24.4968 0.442938 22.6878 1.09335 21.0613C1.74377 19.4348 2.97053 18.105 4.53934 17.3257C6.10815 16.5465 7.90904 16.3724 9.59803 16.8369C11.287 17.3013 12.7458 18.3716 13.6956 19.8434V19.845ZM7.709 27.6667C8.75882 27.6667 9.76563 27.2496 10.508 26.5073C11.2503 25.765 11.6673 24.7582 11.6673 23.7083C11.6673 22.6585 11.2503 21.6517 10.508 20.9094C9.76563 20.167 8.75882 19.75 7.709 19.75C6.65919 19.75 5.65237 20.167 4.91004 20.9094C4.16771 21.6517 3.75067 22.6585 3.75067 23.7083C3.75067 24.7582 4.16771 25.765 4.91004 26.5073C5.65237 27.2496 6.65919 27.6667 7.709 27.6667ZM28.2923 30.8333C27.3567 30.8333 26.4302 30.649 25.5657 30.291C24.7013 29.9329 23.9158 29.4081 23.2542 28.7465C22.5926 28.0849 22.0678 27.2994 21.7097 26.435C21.3516 25.5705 21.1673 24.644 21.1673 23.7083C21.1673 22.7727 21.3516 21.8462 21.7097 20.9817C22.0678 20.1173 22.5926 19.3318 23.2542 18.6702C23.9158 18.0086 24.7013 17.4838 25.5657 17.1257C26.4302 16.7676 27.3567 16.5833 28.2923 16.5833C30.182 16.5833 31.9943 17.334 33.3305 18.6702C34.6667 20.0064 35.4173 21.8187 35.4173 23.7083C35.4173 25.598 34.6667 27.4103 33.3305 28.7465C31.9943 30.0827 30.182 30.8333 28.2923 30.8333ZM28.2923 27.6667C29.3421 27.6667 30.349 27.2496 31.0913 26.5073C31.8336 25.765 32.2507 24.7582 32.2507 23.7083C32.2507 22.6585 31.8336 21.6517 31.0913 20.9094C30.349 20.167 29.3421 19.75 28.2923 19.75C27.2425 19.75 26.2357 20.167 25.4934 20.9094C24.751 21.6517 24.334 22.6585 24.334 23.7083C24.334 24.7582 24.751 25.765 25.4934 26.5073C26.2357 27.2496 27.2425 27.6667 28.2923 27.6667ZM5.334 13.4167H14.834L18.9507 10.6728L19.394 9.01658L22.453 9.83675L19.4098 21.1275L16.525 19.7215L16.7118 19.0248L13.2507 21.3333L11.6673 18.1667H5.334V13.4167ZM24.4797 5.5H30.6673V10.25H26.2087L29.2487 18.6037L26.272 19.6867L22.8393 10.25H22.7507V10.0093L20.534 3.91667H16.4173V0.75H22.7507L24.4797 5.5Z" fill="black"/>
</svg>
