<svg width="32" height="31" viewBox="0 0 32 31" fill="none" xmlns="http://www.w3.org/2000/svg">
<path d="M31.8327 15V29.25C31.8327 29.6699 31.6659 30.0727 31.3689 30.3696C31.072 30.6665 30.6693 30.8333 30.2494 30.8333H28.666C28.2461 30.8333 27.8434 30.6665 27.5464 30.3696C27.2495 30.0727 27.0827 29.6699 27.0827 29.25V27.6667H4.91602V29.25C4.91602 29.6699 4.7492 30.0727 4.45227 30.3696C4.15534 30.6665 3.75261 30.8333 3.33268 30.8333H1.74935C1.32942 30.8333 0.926696 30.6665 0.629763 30.3696C0.332831 30.0727 0.166016 29.6699 0.166016 29.25V15L4.09268 5.83567C4.33703 5.26567 4.74336 4.77996 5.26127 4.43882C5.77918 4.09768 6.38585 3.91612 7.00602 3.91667H11.2493V0.75H20.7494V3.91667H24.9943C25.6139 3.91674 26.2199 4.09859 26.7372 4.43969C27.2545 4.78079 27.6603 5.26616 27.9044 5.83567L31.8327 15ZM3.61135 15H28.3874L24.9943 7.08333H7.00602L3.61293 15H3.61135ZM7.29102 22.9167C7.92091 22.9167 8.525 22.6664 8.9704 22.221C9.41579 21.7756 9.66602 21.1716 9.66602 20.5417C9.66602 19.9118 9.41579 19.3077 8.9704 18.8623C8.525 18.4169 7.92091 18.1667 7.29102 18.1667C6.66113 18.1667 6.05704 18.4169 5.61164 18.8623C5.16624 19.3077 4.91602 19.9118 4.91602 20.5417C4.91602 21.1716 5.16624 21.7756 5.61164 22.221C6.05704 22.6664 6.66113 22.9167 7.29102 22.9167ZM24.7077 22.9167C25.3376 22.9167 25.9417 22.6664 26.3871 22.221C26.8325 21.7756 27.0827 21.1716 27.0827 20.5417C27.0827 19.9118 26.8325 19.3077 26.3871 18.8623C25.9417 18.4169 25.3376 18.1667 24.7077 18.1667C24.0778 18.1667 23.4737 18.4169 23.0283 18.8623C22.5829 19.3077 22.3327 19.9118 22.3327 20.5417C22.3327 21.1716 22.5829 21.7756 23.0283 22.221C23.4737 22.6664 24.0778 22.9167 24.7077 22.9167Z" fill="black"/>
</svg>
