<svg width="24" height="18" viewBox="0 0 24 18" fill="none" xmlns="http://www.w3.org/2000/svg">
<path fill-rule="evenodd" clip-rule="evenodd" d="M2.35937 3.67284V18H18.2539L18.2285 12.855C17.6841 12.858 17.1424 12.9732 16.6172 13.1978V13.6569C16.2618 13.6697 15.9241 13.9021 15.6775 14.3034C15.4309 14.7047 15.2955 15.2424 15.3008 15.7994H5.29688C5.29688 14.4618 4.67969 13.5161 3.92969 13.5252V7.84458C4.28541 7.83252 4.62366 7.6005 4.87064 7.19913C5.11762 6.79776 5.25329 6.25961 5.24805 5.70209H13.9707C14.0586 5.60415 14.1426 5.50927 14.2188 5.39602C14.7236 4.72315 15.2768 4.14485 15.8672 3.67284H2.35937ZM24 7.5783L20.0039 13.7915L20.0234 10.6696C17.5234 9.8218 14.6992 10.8196 13.1875 13.7823C13.4766 7.65176 17.0098 4.59106 20.0586 4.43802L20.0762 1.25183L24 7.57524V7.5783ZM12.1094 9.26169C11.9174 8.69007 11.6216 8.2205 11.2593 7.91238C10.897 7.60425 10.4846 7.47141 10.0741 7.53064C9.66362 7.58988 9.27359 7.83854 8.95331 8.24517C8.63304 8.6518 8.3969 9.19814 8.27478 9.81509C8.15266 10.432 8.15003 11.0919 8.26722 11.7112C8.38442 12.3305 8.61618 12.8814 8.93319 13.2943C9.2502 13.7071 9.63822 13.9634 10.0482 14.0307C10.4581 14.0979 10.8716 13.9732 11.2363 13.6722C11.7253 13.2686 12.0919 12.5773 12.2556 11.7502C12.4193 10.9231 12.3667 10.028 12.1094 9.26169V9.26169ZM0 0V13.3477H1.08789V3.62693C1.08533 3.40773 1.11199 3.19009 1.16615 2.98794C1.22031 2.78579 1.30078 2.60356 1.40243 2.45292C1.50408 2.30227 1.62466 2.1865 1.75648 2.11303C1.8883 2.03955 2.02844 2.00997 2.16797 2.02619H14.9961V0H0Z" fill="#898A8D"/>
</svg>
