<svg width="36" height="27" viewBox="0 0 36 27" fill="none" xmlns="http://www.w3.org/2000/svg">
<path d="M25.9173 5.6665H30.6673L35.4173 12.0885V21.4998H32.1952C32.007 22.8208 31.3485 24.0295 30.3406 24.9039C29.3328 25.7783 28.0433 26.2598 26.709 26.2598C25.3747 26.2598 24.0852 25.7783 23.0773 24.9039C22.0695 24.0295 21.411 22.8208 21.2227 21.4998H13.1952C13.007 22.8208 12.3485 24.0295 11.3406 24.9039C10.3328 25.7783 9.04329 26.2598 7.70898 26.2598C6.37468 26.2598 5.08518 25.7783 4.07733 24.9039C3.06948 24.0295 2.41096 22.8208 2.22273 21.4998H0.583984V2.49984C0.583984 2.07991 0.750799 1.67718 1.04773 1.38025C1.34466 1.08332 1.74739 0.916504 2.16732 0.916504H24.334C24.7539 0.916504 25.1566 1.08332 25.4536 1.38025C25.7505 1.67718 25.9173 2.07991 25.9173 2.49984V5.6665ZM25.9173 8.83317V13.5832H32.2506V13.1319L29.0713 8.83317H25.9173Z" fill="black"/>
</svg>
