<svg width="59" height="95" viewBox="0 0 59 95" fill="none" xmlns="http://www.w3.org/2000/svg">
<path d="M28.6036 94.957C33.8816 94.957 38.1603 94.2773 38.1603 93.439C38.1603 92.6006 33.8816 91.921 28.6036 91.921C23.3256 91.921 19.0469 92.6006 19.0469 93.439C19.0469 94.2773 23.3256 94.957 28.6036 94.957Z" fill="#4777F7"/>
<path d="M21.5003 27.5864C21.5007 24.8302 22.5208 22.1574 24.3904 20.0136C26.26 17.8697 28.8661 16.3844 31.7744 15.8052C29.8782 15.4282 27.9149 15.4489 26.0284 15.8658C24.1419 16.2827 22.3799 17.0853 20.8715 18.2148C19.3631 19.3443 18.1464 20.7721 17.3106 22.3937C16.4748 24.0152 16.041 25.7894 16.041 27.5864C16.041 29.3834 16.4748 31.1576 17.3106 32.7792C18.1464 34.4007 19.3631 35.8285 20.8715 36.958C22.3799 38.0875 24.1419 38.8901 26.0284 39.307C27.9149 39.724 29.8782 39.7446 31.7744 39.3676C28.8661 38.7884 26.26 37.3031 24.3904 35.1592C22.5208 33.0154 21.5007 30.3426 21.5003 27.5864Z" fill="#4777F7"/>
<path d="M7.34731 27.5864C7.34782 21.0126 9.94271 14.6659 14.6432 9.74176C19.3436 4.81766 25.8252 1.65607 32.8669 0.852561C28.7808 0.388437 24.635 0.733416 20.7035 1.86468C16.7721 2.99594 13.1447 4.8877 10.0613 7.41484C6.97781 9.94198 4.50858 13.0469 2.81689 16.5242C1.12521 20.0016 0.249622 23.7721 0.248047 27.5864C0.248047 39.6682 19.4245 73.7384 26.6269 86.1085C26.8884 86.5587 27.2766 86.9348 27.7503 87.197C28.224 87.4591 28.7655 87.5976 29.3172 87.5976C29.869 87.5976 30.4105 87.4591 30.8842 87.197C31.3578 86.9348 31.7461 86.5587 32.0076 86.1085C32.2772 85.6456 32.5654 85.1487 32.8669 84.6272C25.1133 71.2155 7.34731 39.216 7.34731 27.5864Z" fill="#4777F7"/>
<path d="M29.3421 87.9003C28.7401 87.9048 28.1483 87.7559 27.6315 87.4698C27.1147 87.1837 26.6927 86.7716 26.4116 86.2783C18.4702 72.6392 0 39.6218 0 27.6362C2.31924e-07 20.4257 3.09141 13.5106 8.59417 8.412C14.0969 3.31344 21.5603 0.449097 29.3423 0.449097C37.1244 0.449097 44.5877 3.31344 50.0905 8.412C55.5932 13.5106 58.6847 20.4257 58.6847 27.6362C58.6847 39.6229 40.2141 72.6394 32.2728 86.2783C31.9917 86.7716 31.5696 87.1838 31.0528 87.4699C30.5359 87.7559 29.9441 87.9048 29.3421 87.9003ZM29.3423 0.955082C21.7077 0.96306 14.3883 3.77666 8.98984 8.7786C3.59136 13.7805 0.55471 20.5623 0.546097 27.6362C0.546097 39.5065 18.9707 72.4326 26.8921 86.0381C27.1303 86.4481 27.4838 86.7906 27.9152 87.0294C28.3466 87.2682 28.8397 87.3943 29.3422 87.3943C29.8447 87.3943 30.3378 87.2682 30.7692 87.0294C31.2006 86.7906 31.5541 86.4481 31.7923 86.0381C39.7139 72.4331 58.1386 39.5077 58.1386 27.6362C58.1299 20.5623 55.0933 13.7805 49.6948 8.7786C44.2963 3.77666 36.9769 0.963062 29.3423 0.955082Z" fill="#3F3D56"/>
<path d="M29.3424 39.9385C26.7163 39.9385 24.1491 39.217 21.9656 37.8653C19.7821 36.5135 18.0802 34.5921 17.0752 32.3441C16.0702 30.0961 15.8073 27.6225 16.3196 25.2361C16.8319 22.8496 18.0965 20.6575 19.9534 18.937C21.8103 17.2164 24.1762 16.0447 26.7518 15.57C29.3274 15.0953 31.9972 15.3389 34.4234 16.2701C36.8496 17.2012 38.9233 18.7781 40.3822 20.8012C41.8412 22.8244 42.6199 25.2029 42.6199 27.6361C42.6159 30.8978 41.2158 34.0248 38.7266 36.3311C36.2375 38.6374 32.8626 39.9348 29.3424 39.9385ZM29.3424 15.8396C26.8243 15.8396 24.3627 16.5314 22.269 17.8276C20.1753 19.1238 18.5434 20.9661 17.5798 23.1216C16.6161 25.2771 16.3639 27.649 16.8552 29.9373C17.3464 32.2256 18.5589 34.3276 20.3395 35.9773C22.12 37.6271 24.3886 38.7506 26.8583 39.2058C29.328 39.661 31.8879 39.4274 34.2143 38.5346C36.5407 37.6418 38.5291 36.1298 39.9281 34.1899C41.3271 32.25 42.0738 29.9693 42.0738 27.6361C42.07 24.5086 40.7275 21.5102 38.3407 19.2987C35.9539 17.0872 32.7178 15.8432 29.3424 15.8396V15.8396Z" fill="#3F3D56"/>
</svg>
