<svg width="36" height="36" viewBox="0 0 36 36" fill="none" xmlns="http://www.w3.org/2000/svg">
<circle cx="18" cy="18" r="18" fill="white"/>
<path d="M22.6266 21.5128L26 24.8855L24.8855 26L21.5128 22.6266C20.2579 23.6325 18.6971 24.1797 17.0887 24.1774C13.1757 24.1774 10 21.0017 10 17.0887C10 13.1757 13.1757 10 17.0887 10C21.0017 10 24.1774 13.1757 24.1774 17.0887C24.1797 18.6971 23.6325 20.2579 22.6266 21.5128ZM21.0466 20.9284C22.0462 19.9005 22.6044 18.5225 22.6021 17.0887C22.6021 14.0421 20.1345 11.5753 17.0887 11.5753C14.0421 11.5753 11.5753 14.0421 11.5753 17.0887C11.5753 20.1345 14.0421 22.6021 17.0887 22.6021C18.5225 22.6044 19.9005 22.0462 20.9284 21.0466L21.0466 20.9284Z" fill="black"/>
</svg>
