<svg width="16" height="16" viewBox="0 0 16 16" fill="none" xmlns="http://www.w3.org/2000/svg">
<path d="M9.31375 12.3927L5.05541 10.0702C4.64666 10.4759 4.12692 10.7516 3.56174 10.8624C2.99655 10.9732 2.41121 10.9141 1.87952 10.6928C1.34782 10.4714 0.893571 10.0975 0.574036 9.61835C0.2545 9.13917 0.0839844 8.57612 0.0839844 8.00017C0.0839844 7.42423 0.2545 6.86118 0.574036 6.382C0.893571 5.90282 1.34782 5.52898 1.87952 5.30759C2.41121 5.0862 2.99655 5.02719 3.56174 5.13798C4.12692 5.24878 4.64666 5.52443 5.05541 5.93017L9.31375 3.60767C9.1677 2.92245 9.27318 2.20756 9.61091 1.59372C9.94863 0.979879 10.496 0.508116 11.153 0.264701C11.81 0.0212863 12.5326 0.0224852 13.1888 0.268079C13.8449 0.513672 14.3907 0.987248 14.7264 1.6022C15.0621 2.21716 15.1652 2.9324 15.0169 3.61713C14.8686 4.30187 14.4787 4.91033 13.9187 5.33126C13.3586 5.75218 12.6657 5.95744 11.9668 5.9095C11.2678 5.86156 10.6094 5.56363 10.1121 5.07017L5.85375 7.39267C5.93869 7.79322 5.93869 8.20713 5.85375 8.60767L10.1121 10.9302C10.6094 10.4367 11.2678 10.1388 11.9668 10.0908C12.6657 10.0429 13.3586 10.2482 13.9187 10.6691C14.4787 11.09 14.8686 11.6985 15.0169 12.3832C15.1652 13.0679 15.0621 13.7832 14.7264 14.3981C14.3907 15.0131 13.8449 15.4867 13.1888 15.7323C12.5326 15.9779 11.81 15.9791 11.153 15.7356C10.496 15.4922 9.94863 15.0205 9.61091 14.4066C9.27318 13.7928 9.1677 13.0779 9.31375 12.3927Z" fill="#444444"/>
</svg>
